<?xml version="1.0" standalone="no"?>
<!DOCTYPE svg PUBLIC "-//W3C//DTD SVG 20010904//EN"
 "http://www.w3.org/TR/2001/REC-SVG-20010904/DTD/svg10.dtd">
<svg version="1.0" xmlns="http://www.w3.org/2000/svg"
 width="9696.000000pt" height="9696.000000pt" viewBox="0 0 9696.000000 9696.000000"
 preserveAspectRatio="xMidYMid meet">
<metadata>
Created by potrace 1.16, written by Peter Selinger 2001-2019
</metadata>
<g transform="translate(0.000000,9696.000000) scale(0.100000,-0.100000)"
fill="#000000" stroke="none">
<path d="M0 48480 l0 -48480 48480 0 48480 0 0 48480 0 48480 -48480 0 -48480
0 0 -48480z m58205 31380 c8 -26 -7 -52 -55 -90 -22 -17 -37 -37 -34 -42 4 -7
2 -8 -4 -4 -6 4 -22 2 -34 -5 -28 -14 -286 -266 -281 -274 1 -3 0 -3 -3 0 -18
12 -85 -43 -248 -204 -98 -97 -194 -201 -213 -231 -20 -30 -88 -109 -153 -175
-65 -66 -125 -136 -135 -155 -10 -19 -44 -62 -75 -95 -32 -33 -70 -80 -85
-105 -15 -25 -42 -61 -59 -80 -46 -51 -264 -378 -318 -477 -26 -47 -56 -95
-67 -107 -10 -12 -35 -53 -54 -92 -20 -39 -47 -84 -60 -100 -33 -39 -287 -549
-287 -576 0 -11 -27 -74 -60 -140 -33 -66 -60 -129 -60 -140 0 -11 -18 -56
-40 -100 -22 -44 -40 -90 -40 -102 0 -12 -9 -39 -20 -61 -11 -22 -20 -49 -20
-60 0 -11 -9 -38 -20 -60 -11 -22 -20 -49 -20 -60 0 -11 -9 -38 -20 -60 -11
-22 -20 -49 -20 -60 0 -11 -9 -38 -20 -60 -11 -22 -20 -51 -20 -66 0 -15 -7
-35 -17 -44 -10 -11 -17 -37 -19 -73 -2 -32 -3 -60 -4 -64 0 -4 -8 -14 -17
-23 -11 -11 -17 -36 -19 -75 -1 -39 -9 -70 -23 -93 -16 -26 -21 -51 -21 -103
0 -52 -5 -76 -20 -99 -15 -23 -20 -47 -20 -100 0 -53 -5 -77 -20 -100 -16 -24
-20 -47 -20 -120 0 -74 -4 -95 -20 -120 -18 -27 -20 -45 -20 -170 2 -175 3
-160 -17 -181 -17 -16 -18 -61 -18 -650 0 -575 2 -634 17 -650 13 -15 17 -46
20 -160 2 -114 6 -146 20 -160 12 -15 17 -45 20 -140 2 -95 7 -126 19 -140 12
-13 18 -45 21 -101 3 -55 10 -89 20 -100 10 -12 17 -46 20 -100 3 -58 10 -88
21 -101 10 -10 17 -34 17 -53 1 -44 16 -110 28 -118 5 -3 13 -36 16 -74 4 -37
13 -73 20 -80 7 -7 16 -32 20 -57 4 -25 13 -54 20 -65 7 -11 16 -38 20 -60 4
-22 13 -49 20 -60 8 -11 17 -40 21 -63 4 -23 12 -48 19 -55 7 -7 16 -41 19
-76 4 -36 13 -72 21 -80 7 -9 16 -45 20 -80 3 -36 12 -72 20 -80 8 -10 15 -49
18 -98 3 -55 10 -89 20 -100 10 -12 17 -46 20 -100 3 -56 10 -89 20 -100 12
-14 17 -47 20 -139 2 -96 7 -126 20 -140 13 -16 17 -47 20 -180 2 -137 6 -165
20 -181 16 -18 18 -63 18 -587 1 -557 0 -568 -20 -601 -19 -31 -21 -48 -20
-199 2 -152 0 -169 -19 -200 -18 -28 -21 -49 -21 -140 0 -87 -4 -113 -20 -143
-15 -29 -20 -57 -20 -120 0 -64 -5 -91 -20 -122 -13 -24 -20 -54 -19 -78 2
-27 -5 -51 -19 -75 -17 -27 -22 -51 -22 -103 0 -51 -5 -76 -21 -102 -15 -24
-20 -45 -17 -71 4 -26 -2 -51 -20 -85 -17 -33 -23 -57 -19 -80 3 -22 -2 -46
-19 -77 -13 -25 -24 -57 -24 -72 0 -14 -8 -34 -17 -44 -12 -11 -18 -36 -20
-75 -1 -35 -10 -73 -23 -96 -11 -21 -20 -47 -20 -58 0 -12 -9 -38 -20 -60 -11
-22 -20 -49 -20 -60 0 -11 -9 -38 -20 -60 -11 -22 -20 -48 -20 -58 0 -11 -18
-55 -40 -99 -22 -44 -40 -89 -40 -100 0 -11 -18 -56 -40 -100 -22 -44 -40 -89
-40 -100 0 -11 -27 -74 -60 -140 -33 -66 -60 -129 -60 -140 0 -26 -234 -492
-270 -539 -15 -19 -50 -80 -78 -135 -49 -97 -452 -713 -511 -780 -17 -19 -46
-58 -65 -86 -18 -29 -61 -80 -95 -113 -34 -33 -77 -85 -96 -115 -19 -32 -117
-138 -230 -250 -108 -107 -205 -205 -216 -218 l-18 -24 -31 32 c-17 17 -29 40
-29 53 1 17 2 18 6 5 2 -10 9 -18 14 -18 6 0 7 5 4 10 -3 6 -1 10 5 10 6 0 8
5 5 11 -4 6 0 16 8 22 24 18 79 128 73 144 -3 8 -2 12 3 9 14 -9 44 70 37 98
-4 16 -1 28 7 33 20 12 39 52 31 65 -4 6 -3 8 3 5 16 -10 47 68 39 98 -4 16
-3 24 3 21 13 -8 45 78 38 104 -3 11 -1 18 3 15 5 -3 15 14 23 37 8 24 20 59
27 78 7 19 18 55 26 80 18 60 43 135 66 192 10 26 18 54 18 63 0 9 9 34 20 56
13 25 20 56 19 82 -1 28 5 54 20 79 15 25 21 50 20 80 -1 29 5 55 20 80 15 25
21 50 20 80 -1 29 5 55 20 80 18 30 22 50 20 100 -2 51 1 70 19 98 20 30 22
47 21 120 -2 73 1 90 20 120 19 30 21 47 20 120 -2 73 1 90 20 120 19 31 22
47 20 140 -2 93 0 109 20 140 20 33 21 46 20 200 -1 153 0 168 20 200 21 34
21 45 20 341 -1 293 0 307 20 340 20 32 21 48 21 309 0 256 -1 278 -20 313
-18 33 -20 56 -20 240 0 183 -2 206 -20 240 -17 31 -20 56 -20 160 0 103 -3
128 -20 160 -15 28 -20 56 -20 119 0 59 -5 92 -17 113 -9 17 -19 65 -23 111
-4 55 -12 91 -25 110 -11 17 -18 42 -16 61 1 18 -8 54 -20 80 -12 26 -21 61
-20 76 3 39 -30 131 -42 114 -5 -7 -6 -1 -2 17 8 37 -23 111 -52 127 -13 7
-23 18 -23 26 0 21 20 15 30 -9 6 -17 9 -19 9 -6 1 21 -30 89 -38 84 -3 -2 -6
22 -6 54 0 45 -7 73 -34 129 -19 39 -38 71 -42 71 -4 0 -5 8 -3 18 7 23 -32
109 -40 90 -3 -7 -3 1 0 19 4 23 -5 52 -32 112 -20 45 -40 81 -44 81 -4 0 -5
10 -3 23 6 30 -143 330 -159 321 -7 -4 -8 -3 -4 4 10 16 -23 83 -37 75 -6 -3
-7 -1 -3 5 9 15 -23 84 -35 76 -5 -3 -6 1 -4 8 8 19 -65 165 -123 247 -27 39
-51 69 -53 67 -2 -3 -5 7 -6 21 -1 32 -72 135 -86 126 -6 -3 -7 -1 -3 5 12 20
-56 120 -76 114 -5 -1 -7 2 -3 8 11 18 -58 118 -77 112 -5 -1 -6 2 -3 9 9 14
-64 121 -78 112 -6 -3 -7 -1 -3 5 4 6 2 22 -5 34 -14 28 -147 167 -153 161 -2
-2 -7 1 -12 8 -4 8 -3 10 4 5 17 -10 15 6 -5 34 -29 43 -142 158 -149 151 -4
-3 -4 -1 0 6 4 7 0 25 -8 40 -21 41 -714 726 -761 754 -22 13 -79 59 -126 104
-92 84 -137 119 -333 253 -66 46 -134 96 -151 111 -42 38 -196 138 -242 157
-21 9 -54 29 -73 44 -19 15 -65 43 -102 63 -37 20 -93 54 -125 76 -78 53 -678
351 -707 351 -12 0 -57 18 -100 40 -42 22 -87 40 -100 40 -12 0 -57 18 -100
40 -42 22 -88 40 -102 40 -13 0 -41 9 -61 20 -21 11 -48 20 -60 20 -13 0 -40
9 -60 20 -21 11 -48 20 -60 20 -13 0 -40 9 -60 20 -21 11 -48 20 -60 20 -13 0
-40 9 -60 20 -21 11 -49 20 -63 20 -14 0 -38 9 -55 20 -20 14 -47 20 -83 20
-39 0 -61 6 -79 20 -19 14 -41 20 -80 20 -40 0 -62 6 -80 20 -19 15 -41 20
-83 20 -44 0 -61 4 -75 20 -15 17 -31 20 -100 20 -70 0 -85 3 -100 21 -17 18
-30 20 -118 18 -88 -1 -100 1 -121 20 -22 20 -33 22 -140 20 -108 -1 -119 0
-140 20 -22 21 -32 22 -201 21 -167 -2 -178 -1 -199 19 -22 21 -29 21 -552 21
-361 0 -524 -4 -514 -10 11 -8 8 -9 -11 -5 -19 5 -31 1 -40 -12 -13 -16 -31
-18 -195 -18 -159 0 -184 -2 -201 -17 -16 -15 -40 -18 -134 -19 -78 0 -108 -3
-94 -10 15 -7 13 -8 -12 -3 -23 4 -35 0 -45 -13 -11 -15 -28 -18 -96 -18 -72
0 -86 -3 -100 -20 -15 -17 -27 -20 -85 -17 -65 3 -144 -19 -132 -38 2 -4 -18
-5 -44 -2 -35 3 -59 -1 -83 -13 -18 -10 -62 -21 -98 -25 -44 -6 -69 -14 -80
-27 -12 -15 -25 -18 -63 -15 -34 3 -58 -2 -87 -17 -22 -12 -51 -21 -63 -21
-12 -1 -40 -9 -62 -20 -22 -11 -49 -20 -60 -20 -11 0 -38 -9 -60 -20 -22 -11
-49 -20 -60 -20 -11 0 -38 -9 -60 -20 -22 -11 -49 -19 -61 -20 -11 0 -56 -18
-99 -40 -43 -22 -89 -40 -101 -40 -13 0 -82 -30 -154 -66 l-131 -66 -24 26
c-13 14 -20 26 -15 26 6 0 10 4 10 9 0 17 441 446 488 474 26 16 81 62 122
102 41 40 95 85 120 100 25 15 61 42 80 60 19 18 55 45 80 60 25 15 64 45 86
66 23 20 57 45 75 54 19 10 43 25 54 35 11 10 41 31 66 47 75 46 141 90 184
121 22 17 69 44 105 62 36 18 78 44 94 57 40 33 680 353 707 353 12 0 75 27
140 60 65 33 128 60 141 60 13 0 40 9 61 20 20 11 47 20 60 20 12 0 38 8 57
19 19 10 53 21 74 25 21 4 48 13 60 21 12 7 39 16 60 20 21 3 48 12 60 20 12
7 40 16 63 20 23 4 47 13 54 21 7 9 31 14 69 14 42 0 64 5 83 20 18 14 40 20
80 20 39 0 61 6 80 20 18 14 40 20 80 20 39 0 61 6 80 20 20 16 40 20 100 20
59 0 79 4 100 20 21 17 40 20 120 20 79 0 98 3 120 20 22 18 42 20 181 21 137
1 159 4 180 20 23 18 52 19 619 19 360 0 598 4 602 9 3 6 -200 10 -532 11
-295 0 -539 3 -542 5 -2 3 259 5 582 5 349 0 587 -4 589 -9 2 -5 10 -11 18
-13 8 -2 22 -12 31 -22 20 -24 134 -36 152 -16 9 10 9 11 0 6 -7 -4 -13 -2
-13 3 0 7 26 11 65 11 37 0 65 -4 65 -10 0 -5 7 -10 16 -10 9 0 23 -9 32 -21
19 -23 107 -36 118 -17 4 6 3 8 -2 5 -6 -3 -16 -2 -24 4 -10 6 4 9 43 9 31 0
57 -4 57 -10 0 -5 8 -10 18 -10 9 0 23 -9 30 -20 8 -14 23 -20 47 -20 19 0 35
5 35 10 0 11 53 14 64 3 3 -4 14 -8 22 -9 9 -1 23 -12 31 -23 15 -22 83 -31
83 -11 0 11 53 14 64 3 3 -4 14 -8 22 -9 9 -1 23 -12 31 -23 15 -22 48 -27 73
-11 10 6 22 4 38 -6 12 -8 28 -12 34 -8 6 4 8 3 5 -3 -4 -6 8 -18 27 -27 41
-19 50 -20 40 -3 -6 8 -3 8 9 -2 9 -7 24 -11 32 -7 9 3 14 2 11 -3 -9 -13 70
-44 99 -39 14 3 23 3 20 0 -2 -3 4 -11 15 -19 20 -14 80 -15 80 -1 0 4 30 -9
67 -29 36 -20 63 -31 59 -25 -4 7 -2 12 3 12 6 0 11 -4 11 -10 0 -5 6 -10 13
-10 7 0 50 -18 96 -40 45 -22 90 -40 100 -40 9 0 54 -18 100 -40 45 -22 91
-40 101 -40 10 0 87 -34 171 -76 85 -42 169 -78 188 -80 18 -3 52 -20 75 -38
22 -19 124 -75 226 -126 102 -51 198 -104 214 -117 16 -13 60 -40 98 -59 38
-19 88 -49 112 -67 24 -17 56 -40 72 -50 94 -57 139 -89 178 -125 24 -22 61
-49 83 -60 21 -11 61 -43 89 -71 42 -41 58 -51 86 -51 43 0 58 15 58 60 0 20
9 53 20 75 11 22 20 48 20 58 0 11 18 56 41 101 29 59 39 89 35 109 -3 15 -2
26 3 23 10 -6 41 64 41 90 0 9 34 85 77 168 42 83 77 166 78 183 1 18 7 38 13
45 25 32 112 220 106 231 -4 7 -4 9 0 5 14 -12 63 56 115 160 28 57 49 108 45
115 -4 7 -4 9 0 5 20 -18 135 169 120 195 -4 7 -4 9 0 5 9 -7 56 43 75 80 7
12 9 28 5 35 -4 6 -4 9 0 5 9 -7 56 43 75 80 7 12 9 28 5 35 -4 6 -4 9 0 5 9
-7 56 43 75 80 7 12 9 28 5 35 -4 6 -4 9 0 5 8 -7 97 86 116 122 6 11 8 26 4
33 -4 6 -4 9 0 5 9 -8 72 61 68 75 -1 4 1 6 6 3 19 -12 98 95 86 116 -4 7 -4
10 -1 7 9 -7 299 286 316 319 7 12 9 28 5 35 -4 6 -4 9 -1 6 4 -3 56 44 115
104 59 60 132 125 162 145 30 19 109 87 175 152 66 65 136 125 155 135 19 10
62 44 95 75 33 32 80 70 105 85 25 15 64 45 86 66 23 20 56 45 74 54 17 9 51
31 74 48 24 18 56 40 72 50 16 9 54 34 85 55 30 20 78 51 105 69 27 18 67 45
89 61 22 17 69 44 105 62 36 18 78 44 94 57 40 33 600 313 627 313 12 0 75 27
140 60 65 33 128 60 141 60 13 0 40 9 61 20 20 11 47 20 59 20 12 0 56 17 97
39 42 21 95 42 118 46 23 3 47 13 54 21 7 9 31 14 66 14 34 0 68 7 93 20 22
11 50 20 63 20 14 0 35 9 48 20 31 25 46 25 54 0z m-5855 -520 c0 -5 8 -10 18
-10 9 0 23 -9 30 -20 12 -20 62 -28 62 -10 0 13 37 13 45 0 4 -6 73 -44 153
-85 81 -42 169 -90 196 -108 71 -46 353 -324 384 -377 14 -25 38 -61 52 -80
15 -19 51 -82 80 -140 28 -58 55 -109 60 -115 4 -5 11 -28 14 -50 4 -22 13
-49 20 -60 7 -11 16 -38 20 -60 4 -22 14 -47 21 -55 7 -9 15 -51 17 -97 3 -58
10 -88 21 -101 15 -16 17 -48 17 -248 0 -212 -2 -231 -20 -259 -15 -22 -20
-47 -20 -98 0 -48 -6 -78 -20 -104 -11 -21 -20 -47 -20 -58 0 -12 -9 -38 -20
-60 -11 -22 -20 -50 -20 -62 0 -27 0 -27 -136 -234 -57 -85 -123 -174 -148
-197 -24 -22 -42 -43 -40 -46 2 -3 1 -4 -2 -1 -18 12 -162 -98 -156 -119 2 -6
1 -8 -3 -4 -4 3 -48 -13 -98 -38 -50 -24 -99 -44 -109 -44 -11 0 -33 -8 -51
-17 -18 -9 -60 -20 -95 -24 -35 -4 -70 -14 -81 -23 -15 -14 -47 -16 -220 -16
-188 0 -205 1 -228 20 -18 14 -41 20 -74 20 -30 0 -64 8 -86 20 -21 11 -47 20
-59 20 -26 0 -175 75 -264 133 -35 23 -144 120 -241 216 -152 149 -181 183
-205 235 -14 34 -37 75 -49 91 -41 55 -104 163 -98 169 7 7 -29 106 -38 106
-4 0 -5 8 -2 19 6 22 -32 101 -50 102 -9 0 -9 2 1 6 18 7 14 62 -8 111 -18 39
-19 69 -20 356 -1 288 0 317 16 342 11 16 20 49 21 78 1 28 11 69 22 91 12 21
21 48 21 59 0 11 18 55 41 98 22 43 37 83 33 90 -4 6 -3 9 2 5 14 -8 86 94 79
112 -3 8 -4 13 -1 10 8 -8 261 249 261 264 0 7 5 12 10 12 6 0 26 12 45 26 19
15 89 54 156 88 100 51 129 61 171 61 35 0 58 6 76 20 23 18 40 20 220 20 108
0 198 4 201 8 3 5 -56 10 -132 11 -75 1 -139 4 -141 7 -2 2 80 4 182 4 118 0
187 -4 187 -10z m4163 -6806 c16 -27 44 -65 62 -84 18 -19 49 -60 69 -90 20
-30 55 -78 79 -107 23 -28 51 -65 62 -81 11 -17 37 -52 58 -79 65 -81 265
-384 301 -456 19 -37 48 -84 64 -105 16 -20 44 -66 62 -102 18 -36 45 -81 61
-101 15 -19 48 -78 73 -130 25 -52 60 -115 79 -140 18 -24 93 -163 166 -309
73 -146 137 -269 141 -275 4 -5 11 -28 15 -50 4 -22 31 -87 60 -145 29 -58 56
-121 60 -140 4 -19 31 -82 60 -140 29 -58 56 -121 60 -140 4 -19 13 -44 19
-55 7 -11 16 -38 20 -60 4 -22 23 -69 41 -105 18 -36 36 -81 40 -100 4 -19 13
-44 19 -55 7 -11 16 -38 20 -60 4 -22 13 -49 20 -60 7 -11 16 -38 20 -60 4
-22 13 -49 20 -60 8 -11 17 -49 21 -83 4 -34 13 -68 19 -75 7 -7 16 -32 20
-57 4 -25 13 -54 20 -65 8 -11 17 -40 21 -63 4 -23 13 -48 20 -56 7 -7 16 -40
20 -72 7 -71 13 -94 26 -94 5 0 9 -17 9 -37 1 -47 16 -114 28 -122 5 -3 12
-35 16 -70 3 -36 12 -72 20 -80 8 -10 15 -49 18 -98 3 -55 10 -89 20 -100 10
-12 17 -46 20 -100 3 -55 10 -89 20 -100 12 -13 17 -46 20 -120 3 -75 8 -106
20 -120 12 -13 17 -45 20 -120 3 -76 8 -106 20 -120 13 -14 17 -46 20 -159 2
-115 6 -145 20 -160 14 -16 17 -49 20 -220 3 -175 5 -204 21 -221 16 -18 17
-69 17 -766 0 -728 -1 -748 -20 -784 -18 -34 -20 -57 -20 -223 0 -168 -2 -188
-20 -215 -17 -26 -20 -47 -20 -162 0 -112 -3 -134 -17 -149 -14 -14 -19 -41
-23 -123 -4 -79 -10 -112 -22 -131 -14 -19 -18 -45 -18 -115 0 -73 -4 -96 -20
-120 -15 -23 -20 -47 -20 -100 0 -53 -5 -77 -20 -100 -15 -22 -20 -47 -20 -97
0 -48 -6 -79 -20 -107 -13 -23 -20 -55 -19 -77 1 -24 -6 -55 -20 -80 -14 -26
-21 -57 -20 -80 1 -24 -6 -54 -19 -79 -13 -23 -22 -58 -22 -82 0 -24 -9 -60
-20 -80 -11 -21 -20 -50 -20 -65 0 -14 -8 -34 -17 -44 -13 -12 -18 -35 -19
-73 -1 -36 -9 -70 -23 -96 -11 -22 -21 -49 -21 -60 0 -12 -9 -38 -20 -60 -11
-22 -20 -49 -20 -60 0 -11 -9 -38 -20 -60 -11 -22 -20 -49 -20 -60 0 -11 -9
-38 -20 -60 -11 -22 -20 -48 -20 -58 0 -11 -18 -55 -40 -99 -22 -44 -40 -90
-40 -102 0 -12 -9 -39 -20 -61 -11 -22 -20 -48 -20 -58 0 -11 -18 -55 -40 -99
-22 -44 -40 -89 -40 -100 0 -11 -27 -74 -60 -140 -33 -66 -60 -128 -60 -139 0
-26 -394 -814 -430 -860 -15 -19 -53 -85 -84 -145 -30 -60 -82 -147 -115 -194
-33 -47 -76 -114 -94 -150 -42 -78 -293 -457 -337 -506 -17 -20 -42 -54 -57
-77 -14 -23 -41 -59 -59 -79 -18 -21 -45 -57 -60 -80 -14 -24 -41 -59 -59 -78
-18 -19 -45 -55 -60 -80 -15 -25 -53 -72 -85 -105 -31 -33 -65 -76 -75 -95
-10 -19 -61 -80 -115 -135 -54 -55 -113 -125 -133 -155 -20 -33 -208 -228
-459 -478 -233 -232 -423 -425 -421 -427 2 -3 0 -3 -3 0 -15 11 -76 -35 -175
-131 -58 -57 -105 -106 -103 -109 2 -3 1 -3 -2 0 -19 13 -203 -137 -196 -160
2 -5 0 -7 -3 -3 -12 12 -64 -21 -129 -81 -33 -31 -91 -76 -128 -101 -37 -24
-64 -48 -61 -54 3 -6 3 -8 -2 -4 -4 4 -20 1 -35 -7 -34 -18 -126 -96 -123
-105 1 -4 -4 -7 -12 -7 -17 0 -355 -225 -350 -233 2 -4 -2 -7 -10 -7 -22 0
-114 -66 -108 -77 3 -5 1 -6 -4 -3 -19 12 -209 -101 -198 -117 3 -3 2 -4 -1
-1 -8 5 -130 -56 -171 -88 -18 -13 -29 -27 -25 -31 4 -4 2 -6 -4 -4 -17 5
-154 -64 -147 -75 3 -6 1 -7 -5 -4 -5 4 -18 4 -27 1 -13 -6 -14 -9 -3 -16 10
-7 8 -8 -5 -4 -22 7 -128 -44 -120 -57 3 -6 1 -7 -5 -3 -17 10 -85 -21 -76
-35 4 -8 3 -9 -4 -5 -16 10 -83 -23 -75 -37 3 -5 1 -7 -5 -4 -5 4 -18 4 -27 1
-13 -6 -14 -9 -3 -16 10 -7 9 -8 -4 -4 -24 7 -50 -3 -41 -17 3 -5 1 -7 -5 -4
-5 4 -18 4 -27 1 -13 -6 -14 -9 -3 -16 10 -7 9 -8 -4 -4 -24 7 -50 -3 -41 -17
3 -5 1 -7 -5 -4 -5 4 -18 4 -27 1 -13 -6 -14 -9 -3 -16 10 -7 9 -8 -4 -4 -24
7 -50 -3 -41 -17 3 -5 1 -7 -5 -4 -5 4 -18 4 -27 1 -13 -6 -14 -9 -3 -16 10
-7 9 -8 -4 -4 -24 7 -50 -3 -41 -17 3 -5 1 -7 -5 -3 -6 3 -70 -23 -143 -59
-72 -36 -140 -65 -151 -65 -11 0 -56 -18 -100 -40 -45 -22 -90 -40 -100 -40
-11 0 -56 -18 -100 -40 -45 -22 -91 -40 -102 -40 -12 -1 -39 -9 -61 -20 -22
-11 -49 -20 -60 -20 -30 0 -127 -48 -120 -59 3 -6 -3 -15 -14 -20 -30 -17 -39
-12 -11 5 16 10 18 13 6 9 -11 -3 -38 -10 -61 -15 -23 -5 -54 -16 -71 -25 -16
-8 -38 -15 -49 -15 -11 0 -38 -9 -60 -20 -22 -11 -48 -19 -58 -20 -10 0 -35
-9 -57 -20 -22 -11 -59 -20 -82 -20 -24 0 -60 -9 -81 -20 -20 -11 -46 -20 -57
-20 -12 0 -38 -9 -60 -20 -22 -11 -58 -20 -81 -20 -41 0 -112 -26 -105 -39 2
-3 -25 -6 -61 -6 -53 0 -68 -4 -81 -20 -14 -16 -29 -20 -80 -20 -52 0 -67 -4
-80 -20 -14 -16 -29 -20 -80 -20 -52 0 -67 -4 -80 -20 -15 -17 -29 -20 -100
-20 -72 0 -86 -3 -100 -20 -15 -17 -29 -20 -100 -20 -72 0 -86 -3 -100 -20
-15 -18 -29 -20 -118 -20 -81 0 -106 -3 -120 -17 -16 -13 -45 -17 -160 -20
-116 -2 -145 -6 -160 -20 -16 -14 -46 -17 -180 -20 -137 -3 -165 -6 -181 -20
-18 -16 -52 -18 -394 -19 -243 0 -367 -4 -354 -10 16 -7 14 -8 -9 -4 -18 4
-34 1 -45 -9 -13 -12 -48 -15 -160 -17 -133 -1 -144 0 -165 20 -22 21 -29 21
-401 21 -370 -1 -378 -1 -400 20 -21 20 -33 21 -179 19 -148 -1 -159 0 -181
21 -21 20 -32 21 -159 19 -128 -1 -139 0 -161 21 -20 19 -32 21 -119 19 -87
-1 -99 1 -120 20 -19 18 -34 21 -103 21 -67 0 -83 3 -98 20 -15 17 -31 20 -97
20 -65 0 -85 4 -105 20 -21 16 -41 20 -100 20 -60 0 -80 4 -100 20 -19 14 -41
20 -80 20 -40 0 -62 6 -80 20 -18 14 -41 20 -74 20 -30 0 -64 8 -86 20 -21 11
-49 20 -63 20 -14 0 -38 9 -55 20 -19 13 -47 20 -78 20 -28 0 -62 8 -84 20
-21 11 -48 20 -60 20 -13 0 -40 9 -60 20 -21 11 -48 20 -60 20 -13 0 -40 9
-60 20 -21 11 -48 20 -60 20 -13 0 -40 9 -60 20 -21 11 -48 20 -60 20 -13 0
-40 9 -60 20 -21 11 -48 20 -60 20 -13 0 -40 9 -60 20 -21 11 -47 20 -59 20
-11 0 -55 18 -98 40 -42 22 -87 40 -100 40 -13 0 -58 18 -101 40 -43 22 -88
40 -99 40 -12 0 -75 27 -139 60 -65 33 -127 60 -138 60 -27 0 -741 358 -816
409 -32 21 -92 55 -134 75 -42 20 -96 51 -120 68 -24 18 -74 48 -111 67 -80
43 -676 439 -733 488 -46 40 -139 109 -226 169 -33 23 -75 55 -92 71 -18 16
-50 40 -72 53 -22 13 -76 58 -120 100 -44 42 -98 87 -120 100 -22 13 -94 76
-160 140 -66 64 -138 127 -160 140 -56 32 -602 576 -627 625 -11 22 -76 96
-143 165 -68 69 -131 141 -140 160 -10 19 -55 73 -100 120 -46 47 -90 101
-100 120 -20 40 -106 136 -118 132 -5 -1 -6 2 -2 8 3 5 1 20 -6 32 -16 32
-102 123 -112 120 -5 -1 -6 2 -2 8 3 5 1 20 -6 32 -14 26 -101 123 -111 123
-3 0 -10 4 -15 9 -5 5 -3 6 5 2 21 -12 13 7 -24 61 -20 29 -41 50 -47 46 -6
-4 -7 -1 -2 6 8 14 -63 124 -75 116 -5 -3 -12 0 -16 6 -4 8 -3 9 4 5 7 -4 12
-4 12 -1 0 23 -68 112 -82 107 -5 -1 -7 2 -3 8 11 17 -57 118 -76 113 -5 -2
-6 3 -4 10 5 12 -98 170 -106 163 -2 -3 -5 7 -5 20 -1 14 -29 65 -63 115 -34
50 -61 95 -61 100 0 6 -5 7 -12 3 -7 -4 -8 -3 -4 4 10 17 -25 91 -77 164 -25
35 -55 84 -68 110 -12 26 -27 44 -32 41 -6 -3 -7 -1 -4 5 10 15 -3 43 -16 35
-6 -3 -7 -1 -3 6 10 16 -103 243 -117 234 -5 -3 -7 -1 -4 5 10 15 -3 43 -16
35 -5 -3 -7 -1 -4 5 10 15 -3 43 -16 35 -5 -3 -7 -1 -4 5 10 15 -3 43 -16 35
-5 -3 -7 -1 -4 5 9 14 -3 43 -14 36 -5 -3 -9 4 -9 14 0 11 -6 25 -14 32 -8 6
-12 18 -9 27 5 12 9 11 20 -8 l14 -24 -7 24 c-10 39 -101 214 -123 237 -19 21
-19 21 2 32 12 6 34 13 49 16 25 6 28 3 37 -31 7 -25 34 -62 80 -110 38 -39
77 -87 87 -105 9 -18 71 -89 139 -158 67 -69 132 -143 143 -165 26 -50 703
-726 752 -750 19 -10 82 -63 140 -120 58 -56 121 -110 140 -120 19 -9 73 -54
120 -100 47 -45 101 -90 120 -100 19 -10 57 -38 84 -62 28 -25 64 -52 80 -60
17 -9 53 -36 80 -60 28 -25 64 -52 80 -60 17 -9 53 -36 80 -60 28 -25 66 -54
85 -64 20 -11 59 -36 86 -55 28 -19 70 -48 95 -65 25 -17 60 -41 79 -52 18
-12 57 -38 85 -57 29 -19 75 -49 102 -67 27 -18 67 -45 89 -61 22 -17 87 -53
145 -82 58 -29 118 -64 134 -77 16 -13 79 -49 140 -80 61 -31 124 -67 140 -80
38 -32 540 -283 565 -283 10 0 92 -36 180 -80 89 -44 170 -80 179 -80 10 0 55
-18 101 -40 45 -22 91 -40 102 -40 11 0 56 -18 101 -41 61 -30 89 -39 110 -35
16 3 27 2 24 -3 -3 -5 9 -16 28 -25 41 -19 50 -20 40 -3 -6 8 -3 8 9 -2 9 -7
24 -11 32 -7 9 3 14 2 11 -2 -8 -13 58 -40 92 -38 17 1 29 -1 27 -5 -6 -9 45
-31 83 -36 24 -3 32 0 26 8 -4 8 -3 9 5 5 6 -4 9 -11 7 -15 -3 -4 11 -15 30
-24 42 -20 47 -21 38 -4 -6 10 -4 10 7 0 17 -16 43 -17 33 -1 -4 7 -3 8 5 4 6
-4 9 -11 6 -16 -3 -4 10 -15 29 -24 41 -19 49 -20 40 -3 -6 10 -4 10 7 0 17
-16 43 -17 33 -1 -4 7 -3 8 5 4 6 -4 9 -11 7 -15 -8 -13 59 -39 92 -37 17 1
29 0 27 -2 -3 -3 3 -11 13 -18 21 -16 82 -18 82 -3 0 7 10 5 25 -5 14 -9 31
-14 38 -10 7 4 9 4 5 -1 -13 -13 29 -36 61 -33 17 1 31 6 31 10 0 5 8 4 19 -1
10 -6 22 -7 26 -3 5 4 4 1 0 -7 -6 -11 -4 -13 11 -7 10 4 15 4 11 0 -12 -12
31 -34 62 -32 17 1 31 6 31 10 0 5 8 4 19 -1 10 -6 22 -7 26 -3 5 4 4 1 0 -7
-6 -11 -4 -13 11 -7 10 4 15 4 11 0 -10 -10 24 -33 51 -34 12 0 22 6 22 13 0
8 4 7 10 -3 7 -11 10 -11 10 -2 0 9 5 10 19 3 10 -6 22 -7 26 -3 5 4 4 1 0 -7
-6 -11 -4 -13 11 -7 10 4 15 4 11 0 -4 -4 2 -13 13 -21 22 -15 80 -14 80 2 0
5 5 3 10 -5 5 -8 10 -12 10 -7 0 4 18 -4 41 -18 45 -29 139 -46 139 -26 0 7
-4 10 -8 7 -4 -2 -14 -1 -22 5 -10 6 4 9 43 9 31 0 57 -4 57 -10 0 -5 8 -10
18 -10 9 0 23 -9 30 -20 8 -14 23 -20 47 -20 19 0 35 5 35 10 0 6 13 10 29 10
17 0 33 -4 36 -10 3 -5 13 -10 21 -10 9 0 24 -10 33 -22 21 -26 123 -39 136
-18 5 9 4 11 -3 6 -7 -4 -12 -2 -12 3 0 14 107 15 112 2 2 -5 10 -11 18 -13 8
-2 22 -12 31 -22 20 -24 134 -36 152 -16 9 10 9 11 0 6 -7 -4 -13 -2 -13 3 0
18 119 14 137 -4 8 -8 19 -12 25 -9 6 4 8 2 5 -3 -4 -6 9 -18 28 -27 27 -13
62 -17 155 -15 130 1 169 13 62 17 -109 5 -84 12 41 12 71 0 117 -4 117 -10 0
-5 7 -10 16 -10 9 0 24 -10 34 -22 l18 -23 593 -3 c381 -1 596 1 602 7 7 7
-166 10 -508 11 -285 0 -521 3 -524 5 -7 8 1081 6 1108 -2 23 -6 23 -7 5 -14
-16 -7 -15 -8 7 -8 15 -1 38 8 52 19 23 18 40 20 180 20 164 0 229 16 80 19
-129 3 -115 11 18 11 119 0 163 -6 153 -21 -10 -17 23 -9 49 11 22 17 41 20
161 21 118 0 138 3 160 20 20 16 40 19 119 19 79 0 98 3 120 20 21 17 40 20
120 20 79 0 98 3 120 20 20 16 40 20 100 20 59 0 79 4 100 20 20 16 40 20 100
20 59 0 79 4 100 20 18 14 40 20 80 20 39 0 61 6 80 20 18 14 40 20 80 20 39
0 61 6 80 20 18 14 40 20 79 20 36 0 63 6 83 20 17 11 41 20 55 20 14 0 41 8
60 19 19 10 54 22 77 25 23 4 47 14 54 22 7 9 31 14 68 14 39 0 65 6 86 20 17
11 41 20 55 20 14 0 42 9 63 20 20 11 47 20 59 20 12 0 56 17 97 39 42 21 94
42 115 46 22 3 49 13 60 21 11 8 31 14 45 14 13 0 59 18 102 40 43 22 88 40
101 40 13 0 58 18 101 40 43 22 87 40 99 40 11 0 91 36 179 80 87 44 167 80
179 80 27 0 535 254 574 287 16 13 78 49 139 79 61 30 124 66 140 80 17 14 62
41 101 61 39 20 84 47 100 60 16 13 63 42 105 64 42 22 99 56 126 75 28 18 70
48 95 65 25 17 60 41 79 52 18 12 57 38 85 57 29 19 84 56 122 81 38 25 76 54
84 64 8 10 44 37 80 60 36 23 72 50 80 60 8 10 44 37 80 60 36 23 72 50 80 60
8 10 40 34 70 53 30 19 91 70 135 112 44 42 96 85 115 95 19 10 91 73 160 140
69 67 141 130 160 140 39 19 630 602 661 652 11 18 17 38 13 45 -4 7 -4 10 0
7 8 -7 258 246 275 279 7 12 9 28 5 35 -4 6 -4 9 0 5 9 -8 72 61 68 75 -1 4 2
6 6 3 10 -6 102 87 121 122 7 12 9 28 5 35 -4 6 -4 9 0 5 8 -7 97 86 116 122
6 11 8 26 4 33 -4 6 -4 9 0 5 8 -7 97 86 116 122 6 11 8 26 4 33 -4 6 -4 9 0
5 8 -7 97 86 116 122 6 11 8 26 4 32 -4 6 -3 9 2 5 14 -8 86 94 79 112 -3 8
-3 12 0 9 8 -7 56 45 74 80 7 12 9 28 5 35 -4 6 -4 9 0 5 9 -7 56 43 75 80 7
12 9 28 5 34 -4 6 -3 9 2 5 14 -8 86 94 79 112 -3 8 -3 12 0 9 19 -19 133 170
119 195 -4 7 -4 9 0 5 15 -13 65 60 135 200 39 79 68 148 65 155 -4 7 -4 9 0
5 4 -4 20 8 36 25 39 45 283 535 285 574 1 18 7 38 13 45 27 34 145 287 147
315 1 18 7 38 12 45 24 30 66 125 68 154 1 16 9 41 18 55 34 51 69 141 64 164
-2 14 -1 22 4 20 4 -3 14 14 22 37 8 24 20 59 27 78 7 19 18 55 26 80 7 25 21
68 30 95 10 28 25 73 35 100 9 28 22 66 29 85 7 19 18 55 26 80 21 71 45 141
66 190 11 25 18 63 17 85 -1 26 5 52 20 77 15 25 21 50 20 80 -2 29 5 54 19
78 14 23 22 51 22 82 0 29 8 60 21 82 13 23 19 49 18 78 -1 29 5 55 20 80 18
30 22 50 20 100 -2 51 1 70 20 98 18 28 21 47 20 100 -2 53 2 72 20 100 18 28
21 47 20 100 -2 53 2 72 20 100 19 31 22 47 20 140 -2 93 0 109 20 140 20 32
22 47 20 160 -2 113 0 128 20 160 20 33 21 46 20 240 -1 193 0 208 20 240 21
35 21 43 21 630 0 576 -1 596 -20 633 -18 33 -20 56 -20 240 0 183 -2 206 -20
240 -17 31 -20 56 -20 160 0 103 -3 128 -20 160 -16 30 -20 56 -20 140 0 83
-4 109 -20 140 -15 28 -20 56 -20 119 0 59 -5 92 -17 113 -9 17 -19 65 -23
111 -4 55 -12 91 -25 110 -11 16 -18 42 -16 60 2 32 -26 117 -38 110 -3 -2 -6
33 -6 78 0 63 -5 87 -20 110 -11 17 -18 42 -16 58 4 41 -29 134 -41 117 -6
-10 -7 -4 -3 17 6 32 -21 108 -35 99 -4 -3 -5 13 -3 35 6 49 -25 149 -39 129
-6 -10 -7 -4 -3 17 6 32 -21 108 -35 99 -4 -3 -5 13 -3 35 6 49 -25 149 -39
129 -6 -10 -7 -4 -3 17 6 34 -28 126 -39 102 -3 -7 -3 2 0 20 4 25 -3 51 -32
112 -20 44 -41 80 -46 80 -5 0 -6 5 -3 10 10 17 -27 112 -38 97 -5 -7 -6 0 -2
19 7 35 -22 107 -38 97 -6 -3 -7 -1 -3 5 4 6 -2 30 -12 53 -13 28 -22 37 -26
28 -3 -8 -3 0 0 17 6 36 -52 173 -91 214 -16 16 -21 30 -16 38 6 10 10 8 14
-9 4 -13 9 -20 12 -17 4 4 -3 28 -14 53 -12 26 -21 68 -21 92 0 45 0 45 23 31
12 -9 35 -37 50 -64z m328 -4111 c1 -54 1 -195 -1 -313 -1 -172 -5 -220 -17
-239 -8 -13 -10 -20 -4 -17 7 4 11 -1 11 -13 0 -14 -5 -19 -15 -15 -13 5 -15
-17 -15 -164 0 -149 -2 -173 -17 -188 -15 -14 -19 -41 -23 -143 -4 -98 -9
-131 -22 -151 -14 -19 -18 -45 -18 -115 0 -73 -4 -96 -20 -120 -15 -23 -20
-47 -20 -100 0 -53 -5 -77 -20 -100 -15 -23 -20 -47 -20 -100 0 -53 -5 -77
-20 -100 -15 -22 -20 -47 -20 -97 0 -49 -6 -78 -21 -108 -14 -27 -20 -51 -16
-73 3 -22 -2 -46 -19 -77 -13 -25 -24 -57 -24 -72 0 -14 -7 -34 -17 -43 -10
-10 -19 -42 -23 -83 -4 -37 -14 -80 -23 -97 -9 -16 -17 -42 -17 -57 0 -15 -8
-34 -17 -44 -12 -11 -18 -36 -20 -73 -1 -32 -11 -73 -23 -96 -11 -21 -20 -49
-20 -60 0 -11 -9 -38 -20 -60 -11 -22 -20 -49 -20 -60 0 -11 -9 -38 -20 -60
-11 -22 -20 -48 -20 -58 0 -11 -18 -55 -40 -99 -22 -44 -40 -89 -40 -100 0
-11 -18 -56 -40 -100 -22 -44 -40 -89 -40 -100 0 -11 -18 -56 -40 -100 -22
-44 -40 -89 -40 -100 0 -10 -54 -127 -120 -259 -67 -134 -120 -252 -120 -268
0 -17 -10 -37 -26 -52 -14 -13 -70 -112 -124 -220 -54 -107 -109 -209 -123
-225 -13 -16 -46 -72 -72 -124 -26 -52 -113 -193 -194 -314 -172 -257 -150
-224 -270 -406 -52 -80 -110 -162 -128 -182 -18 -21 -44 -57 -59 -80 -15 -24
-50 -68 -79 -98 -28 -30 -64 -75 -80 -100 -15 -25 -62 -81 -105 -125 -42 -44
-85 -96 -95 -115 -10 -19 -70 -89 -135 -155 -65 -66 -133 -145 -153 -175 -19
-30 -145 -164 -279 -298 -134 -133 -243 -245 -241 -247 2 -3 0 -3 -3 0 -16 11
-79 -37 -195 -151 -69 -68 -124 -126 -123 -129 2 -3 1 -3 -2 0 -14 10 -73 -32
-155 -111 -48 -46 -85 -86 -83 -89 2 -3 1 -3 -2 0 -19 13 -203 -137 -196 -160
2 -5 0 -7 -3 -3 -4 4 -20 1 -35 -7 -34 -18 -126 -96 -123 -105 1 -4 -5 -7 -12
-7 -18 0 -115 -65 -110 -73 2 -4 -2 -7 -9 -7 -22 0 -595 -386 -589 -397 3 -5
2 -6 -4 -3 -19 12 -293 -140 -278 -155 3 -2 -1 -5 -7 -5 -25 0 -227 -106 -221
-116 3 -6 1 -7 -5 -4 -5 4 -18 4 -27 1 -13 -6 -14 -9 -3 -16 10 -7 9 -8 -4 -4
-24 7 -50 -3 -41 -17 3 -5 1 -7 -5 -4 -5 4 -18 4 -27 1 -13 -5 -14 -8 -3 -15
8 -5 2 -8 -17 -6 -20 1 -29 -2 -27 -11 1 -8 -2 -11 -7 -8 -5 3 -17 3 -26 0
-13 -6 -14 -9 -3 -16 10 -7 9 -8 -4 -4 -24 7 -50 -3 -41 -17 3 -5 1 -7 -5 -4
-5 4 -18 4 -27 1 -13 -6 -14 -9 -3 -16 10 -7 8 -8 -5 -4 -24 8 -91 -25 -75
-37 9 -6 8 -7 -4 -3 -24 7 -50 -3 -41 -17 3 -5 1 -7 -5 -4 -5 4 -18 4 -27 1
-13 -6 -14 -9 -3 -16 9 -7 8 -8 -5 -4 -12 4 -73 -21 -169 -69 -82 -41 -159
-75 -170 -75 -11 0 -56 -18 -100 -40 -45 -22 -91 -40 -102 -40 -12 0 -57 -18
-100 -40 -43 -22 -88 -40 -100 -40 -12 -1 -39 -9 -61 -20 -22 -11 -49 -20 -60
-20 -11 0 -38 -9 -60 -20 -22 -11 -49 -20 -60 -20 -11 0 -38 -9 -60 -20 -22
-11 -49 -20 -60 -20 -11 0 -38 -9 -60 -20 -22 -11 -47 -19 -56 -20 -9 0 -36
-9 -60 -20 -24 -11 -53 -20 -64 -20 -11 0 -38 -9 -60 -20 -22 -11 -49 -20 -60
-20 -11 0 -33 -8 -50 -17 -16 -9 -59 -19 -95 -23 -44 -6 -69 -14 -80 -26 -12
-15 -29 -19 -78 -19 -52 0 -67 -4 -80 -20 -14 -16 -29 -20 -79 -20 -42 0 -67
-5 -80 -17 -13 -11 -42 -17 -101 -20 -69 -3 -87 -7 -100 -23 -14 -16 -29 -20
-78 -20 -44 0 -67 -5 -80 -17 -15 -12 -44 -17 -120 -20 -77 -2 -106 -7 -120
-20 -15 -12 -44 -17 -122 -20 -89 -3 -106 -6 -120 -23 -16 -18 -29 -20 -158
-20 -121 0 -145 -3 -161 -17 -17 -16 -43 -18 -214 -19 -130 0 -187 -4 -174
-10 16 -7 14 -8 -9 -4 -18 4 -34 1 -45 -9 -15 -14 -105 -16 -741 -16 -718 -1
-723 0 -745 20 -21 20 -33 21 -200 20 -168 -2 -178 -1 -200 20 -21 19 -32 21
-159 19 -127 -1 -139 0 -160 20 -20 18 -34 21 -123 21 -87 0 -102 3 -118 20
-16 18 -31 20 -120 20 -89 0 -104 2 -120 20 -15 17 -31 20 -97 20 -65 0 -85 4
-105 20 -19 14 -41 20 -80 20 -40 0 -62 6 -80 20 -19 14 -41 20 -80 20 -40 0
-62 6 -80 20 -19 14 -41 20 -80 20 -40 0 -62 6 -80 20 -18 14 -41 20 -74 20
-30 0 -64 8 -86 20 -21 11 -48 20 -60 20 -13 0 -40 9 -60 20 -21 11 -49 20
-63 20 -14 0 -38 9 -55 20 -19 13 -47 20 -78 20 -28 0 -62 8 -84 20 -21 11
-47 20 -59 20 -11 0 -55 18 -98 40 -42 22 -88 40 -102 40 -13 0 -41 9 -61 20
-21 11 -47 20 -59 20 -12 0 -56 18 -99 40 -43 22 -88 40 -100 40 -12 0 -57 18
-100 40 -43 22 -86 40 -97 40 -23 0 -1069 521 -1113 554 -16 13 -59 39 -95 58
-86 47 -840 550 -864 577 -11 12 -42 35 -70 51 -28 16 -71 50 -96 75 -25 26
-70 63 -100 82 -30 19 -80 59 -110 87 -30 29 -73 63 -95 76 -22 13 -94 76
-160 140 -66 64 -143 131 -171 148 -60 38 -258 237 -269 271 -13 41 8 44 76 8
75 -40 115 -54 105 -38 -11 17 0 13 15 -6 12 -15 12 -16 -1 -8 -25 14 1 -10
49 -44 44 -31 68 -40 56 -21 -3 6 -1 10 5 10 7 0 10 -6 7 -14 -7 -17 53 -61
143 -106 35 -18 80 -45 100 -61 19 -15 82 -51 140 -80 58 -28 118 -63 134 -76
38 -32 700 -363 725 -363 10 0 92 -36 180 -80 89 -44 170 -80 179 -80 10 0 55
-18 101 -40 45 -22 90 -40 100 -40 9 0 55 -18 101 -41 62 -29 92 -39 113 -35
15 3 26 2 23 -3 -9 -14 63 -43 95 -39 15 3 26 1 24 -2 -6 -10 44 -32 83 -37
24 -3 32 0 26 8 -4 8 -3 9 5 5 6 -4 9 -11 7 -15 -3 -4 11 -15 30 -24 42 -20
47 -21 38 -4 -6 10 -4 10 7 0 17 -16 43 -17 33 -1 -4 7 -3 8 5 4 6 -4 9 -11 7
-15 -3 -4 10 -15 29 -24 24 -12 35 -13 35 -5 0 9 3 9 12 0 15 -15 42 -16 32 0
-4 7 -3 8 5 4 6 -4 9 -11 7 -15 -3 -4 11 -15 30 -24 42 -20 48 -21 38 -4 -6 8
-3 8 9 -2 9 -7 24 -11 32 -7 9 3 14 2 11 -3 -7 -11 40 -33 82 -38 25 -3 32 0
26 9 -4 7 -5 11 -1 8 3 -3 5 -9 6 -13 0 -29 101 -53 101 -24 0 8 3 8 9 -2 5
-8 16 -11 26 -8 11 5 14 3 9 -5 -5 -8 -1 -9 12 -4 10 4 15 4 11 0 -12 -12 29
-34 73 -39 32 -4 40 -2 34 7 -4 7 -5 11 -1 8 3 -3 5 -9 6 -13 0 -29 101 -53
101 -24 0 8 4 7 10 -3 5 -8 10 -11 10 -6 0 5 7 3 15 -4 8 -6 20 -8 27 -4 7 4
10 4 6 -1 -4 -4 0 -14 10 -21 20 -16 82 -19 82 -4 0 11 53 14 64 3 3 -4 14 -8
22 -9 9 -1 23 -12 31 -23 15 -23 63 -29 63 -8 0 8 4 7 10 -3 8 -12 10 -12 10
-1 0 10 5 10 25 -3 14 -9 31 -14 38 -10 7 4 9 4 5 -1 -4 -4 0 -14 10 -21 20
-16 82 -19 82 -4 0 11 53 14 64 3 3 -4 14 -8 22 -9 9 -1 23 -12 31 -23 15 -22
83 -31 83 -11 0 6 13 10 29 10 17 0 33 -4 36 -10 3 -5 13 -10 21 -10 9 0 24
-10 33 -22 14 -17 32 -23 80 -26 43 -3 61 -1 61 7 0 7 -4 9 -10 6 -5 -3 -10
-1 -10 4 0 7 23 11 55 11 30 0 55 -4 55 -10 0 -5 7 -10 16 -10 9 0 24 -10 33
-22 14 -17 32 -23 80 -26 43 -3 61 -1 61 7 0 7 -4 10 -8 7 -4 -2 -14 -1 -22 5
-10 6 8 9 53 9 38 0 67 -4 67 -10 0 -5 7 -10 16 -10 9 0 24 -10 34 -22 14 -18
30 -23 90 -26 49 -3 75 0 83 8 9 10 9 11 0 6 -7 -4 -13 -2 -13 3 0 7 29 11 75
11 43 0 75 -4 75 -10 0 -5 7 -10 16 -10 9 0 24 -10 34 -22 18 -23 23 -23 254
-25 129 -2 237 1 240 6 3 4 -70 9 -162 10 -91 1 -169 4 -171 7 -2 2 93 4 212
4 138 0 217 -4 217 -10 0 -5 7 -10 16 -10 9 0 24 -10 34 -22 18 -23 21 -23
311 -26 180 -2 296 1 302 7 6 6 -67 10 -209 11 -120 0 -220 3 -223 5 -7 7 480
6 506 -1 13 -4 20 -10 17 -15 -10 -17 23 -9 49 11 24 19 40 20 260 20 130 0
238 4 241 9 3 4 -74 9 -172 10 -97 1 -179 4 -181 7 -9 9 415 2 434 -7 16 -7
14 -9 -12 -6 -18 2 -30 0 -27 -5 10 -15 71 -8 97 12 22 18 42 20 181 21 137 1
159 4 180 20 20 16 42 19 139 19 99 0 118 3 140 20 21 17 40 20 120 20 79 0
98 3 120 20 21 17 40 20 120 20 79 0 98 3 120 20 20 16 40 20 100 20 59 0 79
4 100 20 18 14 40 20 80 20 39 0 61 6 80 20 18 14 40 20 80 20 39 0 61 6 80
20 18 14 40 20 80 20 39 0 61 6 80 20 18 14 40 20 80 20 39 0 61 6 80 20 18
14 40 20 79 20 36 0 63 6 83 20 17 11 41 20 55 20 14 0 41 8 60 19 19 10 53
21 74 25 21 4 48 13 60 21 12 7 39 16 60 20 21 3 48 12 60 20 12 7 39 16 60
20 21 3 48 12 60 20 12 7 39 16 60 20 21 3 48 12 60 20 12 7 39 16 60 20 22 4
49 13 60 21 11 8 31 14 45 14 13 0 59 18 102 40 43 22 88 40 100 40 12 0 57
18 100 40 43 22 88 40 100 40 12 0 75 27 140 60 65 33 127 60 139 60 27 0 775
374 814 407 16 13 79 49 140 80 61 31 124 67 140 80 16 13 61 40 100 60 39 20
84 47 100 60 16 13 60 40 98 59 38 19 88 49 112 67 24 17 56 40 72 50 16 9 54
34 85 55 30 20 77 51 103 67 27 17 70 49 95 71 25 23 67 55 92 70 110 69 186
124 219 159 19 21 64 56 100 80 36 23 72 50 80 60 8 10 40 34 70 53 30 19 89
67 130 107 41 39 100 88 130 107 56 36 217 192 213 206 -2 4 0 7 5 7 4 0 27
15 51 33 24 17 49 32 54 32 15 0 664 648 688 687 11 18 17 38 13 45 -4 7 -4
10 0 7 8 -7 258 246 275 279 7 12 9 28 5 35 -4 6 -4 9 0 5 9 -8 72 61 68 75
-1 4 2 6 6 3 10 -6 102 87 121 122 7 12 9 28 5 35 -4 6 -4 9 0 5 9 -8 72 61
68 75 -1 4 1 6 6 3 19 -12 98 95 86 116 -4 7 -4 10 0 6 8 -7 97 86 116 122 6
11 8 26 4 32 -4 6 -3 9 2 5 14 -8 86 94 79 112 -3 8 -3 13 0 9 7 -7 97 88 115
122 6 11 8 26 4 32 -4 6 -3 9 2 5 14 -8 86 94 79 112 -3 8 -3 12 0 9 8 -7 56
45 74 80 7 12 9 28 5 35 -4 6 -4 9 0 5 20 -17 135 169 120 194 -4 6 -3 9 2 5
14 -8 86 94 79 112 -3 8 -3 12 0 9 20 -20 174 248 159 275 -4 7 -4 9 0 5 4 -4
20 8 36 25 39 46 483 935 485 974 1 18 7 38 13 45 30 38 113 224 109 245 -2
13 0 26 5 29 6 4 25 38 44 78 24 49 33 80 30 99 -3 15 -1 27 5 27 17 0 82 147
77 175 -3 13 -2 22 3 20 4 -3 14 14 22 37 8 24 20 59 27 78 7 19 18 55 26 80
7 25 21 68 30 95 10 28 25 73 35 100 9 28 22 66 29 85 7 19 18 56 25 81 7 26
21 61 30 79 12 23 15 45 11 72 -5 30 -2 45 16 68 13 19 22 46 23 71 0 22 6 43
11 47 22 14 35 53 28 86 -4 26 0 45 19 78 18 31 24 55 22 88 -2 35 2 51 22 74
21 26 24 37 21 93 -3 60 -2 63 20 63 21 0 22 -3 23 -97z m-34913 -14415 c7 -7
12 -9 12 -5 0 4 10 -3 21 -14 21 -21 28 -21 153 -15 185 9 427 9 450 0 11 -4
28 -16 39 -27 17 -17 29 -18 166 -12 146 7 236 1 226 -15 -12 -19 28 -25 180
-25 155 0 161 -1 184 -24 22 -22 29 -23 101 -17 80 6 143 0 135 -15 -13 -21
41 -31 127 -25 91 7 162 0 153 -15 -12 -19 38 -30 101 -24 41 5 64 4 64 -3 0
-6 10 -8 22 -4 14 3 19 1 14 -6 -13 -21 33 -34 95 -27 41 5 59 4 59 -4 0 -7
10 -9 26 -5 19 5 25 3 20 -4 -13 -21 34 -35 95 -28 33 4 60 3 63 -3 3 -5 16
-7 28 -3 13 3 19 1 15 -5 -10 -16 39 -36 72 -30 17 4 33 2 37 -4 3 -6 17 -8
31 -4 15 3 22 2 19 -4 -11 -17 29 -30 97 -33 36 -2 63 -6 61 -10 -9 -14 35
-28 99 -30 36 -2 63 -5 61 -7 -9 -10 38 -32 68 -32 79 -1 97 -2 93 -9 -8 -12
41 -32 83 -33 22 -1 38 -5 36 -9 -7 -11 33 -29 68 -29 79 -1 97 -2 93 -9 -8
-12 41 -32 83 -33 22 -1 38 -5 36 -8 -5 -8 35 -27 76 -35 19 -4 44 -13 56 -21
12 -7 42 -15 67 -16 25 -1 43 -5 41 -8 -5 -9 35 -27 76 -34 19 -4 44 -13 55
-19 11 -7 37 -16 58 -20 20 -4 66 -22 101 -40 35 -18 81 -37 102 -40 22 -4 48
-13 59 -20 11 -7 37 -16 57 -20 21 -4 68 -22 105 -40 37 -19 83 -37 101 -41
18 -4 67 -24 109 -46 42 -21 82 -39 89 -39 9 0 15 -12 15 -32 1 -18 3 -807 4
-1753 3 -2066 2 -1998 15 -1990 6 3 10 1 10 -4 0 -6 -4 -11 -8 -11 -4 0 -13
-14 -19 -31 -12 -31 -13 -31 -35 -15 -13 9 -49 30 -81 46 -32 17 -107 64 -167
105 -60 41 -151 96 -202 121 -51 26 -113 61 -138 79 -58 42 -914 470 -960 480
-19 4 -64 22 -100 40 -36 18 -81 36 -100 40 -19 4 -64 22 -100 40 -36 18 -81
36 -100 40 -19 4 -66 23 -105 41 -66 31 -106 45 -215 78 -44 13 -60 19 -165
56 -119 42 -153 52 -209 60 -32 4 -72 15 -90 23 -59 27 -131 49 -194 58 -34 4
-72 15 -85 24 -12 8 -42 15 -67 15 -26 0 -61 8 -83 20 -20 11 -56 20 -80 20
-24 0 -59 9 -82 22 -28 15 -61 22 -111 24 -49 1 -81 8 -99 20 -19 12 -50 19
-99 20 -49 2 -83 9 -111 23 -32 17 -56 21 -120 20 -65 -2 -86 2 -110 17 -23
15 -49 19 -121 20 -71 1 -98 6 -120 20 -23 16 -50 19 -160 21 -110 1 -136 4
-160 20 -24 15 -51 18 -200 20 -148 1 -176 4 -200 20 -27 17 -71 18 -882 18
-809 0 -854 -1 -867 -18 -11 -16 -32 -18 -160 -20 -129 -2 -148 -4 -160 -20
-11 -15 -30 -19 -120 -21 -90 -2 -110 -5 -121 -20 -10 -14 -30 -19 -101 -22
-67 -2 -91 -7 -100 -20 -9 -13 -31 -17 -98 -18 -69 -1 -90 -5 -99 -18 -7 -10
-33 -20 -57 -24 -24 -4 -53 -14 -64 -23 -13 -11 -42 -18 -85 -20 -45 -2 -69
-7 -77 -19 -7 -8 -32 -17 -55 -19 -24 -3 -52 -10 -64 -18 -12 -7 -39 -17 -60
-20 -21 -4 -67 -22 -101 -40 -34 -19 -79 -37 -100 -41 -45 -8 -660 -313 -718
-356 -43 -31 -110 -75 -184 -121 -25 -16 -64 -46 -86 -66 -22 -21 -60 -49 -85
-64 -55 -31 -440 -418 -465 -467 -10 -19 -38 -57 -62 -84 -25 -28 -53 -66 -64
-85 -18 -34 -55 -89 -117 -176 -46 -65 -192 -362 -192 -392 0 -16 -9 -41 -20
-58 -11 -16 -20 -43 -20 -60 0 -16 -9 -43 -20 -60 -11 -16 -20 -43 -20 -60 0
-16 -10 -46 -21 -65 -15 -24 -22 -53 -23 -91 -1 -41 -6 -63 -20 -78 -17 -19
-20 -38 -20 -140 -1 -103 -4 -122 -20 -140 -19 -20 -20 -39 -20 -297 0 -262 1
-277 19 -290 18 -13 20 -28 20 -161 1 -121 4 -147 17 -157 12 -9 17 -35 21
-101 3 -62 9 -92 19 -99 9 -7 17 -37 21 -75 4 -36 13 -74 21 -85 7 -12 16 -39
20 -61 4 -22 13 -49 20 -60 7 -11 16 -37 20 -58 4 -22 22 -69 41 -105 18 -37
36 -83 39 -102 4 -19 17 -46 31 -60 13 -14 51 -80 84 -148 37 -75 78 -142 105
-170 24 -26 50 -61 59 -78 9 -16 35 -52 60 -80 24 -27 52 -64 61 -82 23 -45
401 -417 445 -438 20 -10 66 -47 103 -83 38 -36 81 -72 97 -81 55 -29 123 -75
189 -131 37 -31 94 -68 127 -84 33 -15 77 -41 98 -58 21 -16 68 -45 103 -63
36 -18 87 -49 112 -67 55 -40 743 -382 787 -391 17 -4 80 -31 140 -60 61 -30
125 -57 143 -61 18 -4 79 -31 137 -60 57 -29 120 -56 140 -59 19 -4 64 -22 99
-40 35 -18 80 -36 99 -40 20 -4 83 -31 141 -60 58 -30 120 -56 138 -60 18 -3
63 -21 100 -40 37 -18 82 -36 101 -40 19 -3 65 -21 103 -40 38 -19 83 -37 101
-41 18 -3 63 -21 100 -40 37 -18 84 -36 103 -40 19 -4 61 -22 95 -40 33 -18
77 -35 98 -39 20 -4 67 -22 103 -41 36 -19 82 -37 102 -41 21 -3 46 -12 57
-19 11 -6 37 -15 58 -19 20 -4 66 -22 101 -40 35 -18 80 -36 100 -40 20 -4 65
-22 100 -40 35 -18 79 -36 98 -40 19 -3 66 -21 104 -40 38 -19 84 -37 103 -41
19 -4 62 -22 96 -40 35 -18 79 -35 98 -39 20 -4 83 -31 141 -60 58 -30 121
-57 141 -60 19 -4 64 -22 99 -40 34 -18 78 -36 97 -40 19 -3 102 -40 184 -80
83 -41 164 -77 182 -81 18 -3 115 -48 217 -99 102 -51 200 -96 218 -100 45 -9
992 -482 1053 -527 28 -19 91 -55 140 -80 50 -24 107 -56 127 -72 20 -15 65
-42 101 -60 35 -18 81 -45 103 -60 21 -15 62 -43 89 -62 28 -19 63 -42 80 -51
16 -10 53 -34 81 -56 28 -21 54 -38 58 -38 4 0 31 -18 60 -40 29 -22 56 -40
60 -40 5 0 25 -13 45 -29 20 -15 50 -35 66 -44 17 -8 59 -40 94 -71 36 -31 69
-56 75 -56 6 0 36 -23 66 -51 30 -28 70 -57 88 -65 19 -8 71 -51 117 -96 45
-44 105 -93 131 -108 73 -43 724 -702 753 -761 12 -25 39 -63 61 -83 22 -20
46 -52 54 -70 7 -18 35 -54 60 -82 26 -27 54 -62 62 -79 7 -16 29 -52 49 -80
19 -27 48 -70 65 -95 17 -25 46 -67 65 -95 19 -27 60 -99 91 -160 31 -60 69
-126 84 -145 36 -47 117 -206 126 -250 3 -19 30 -82 59 -140 29 -58 56 -121
60 -140 4 -19 13 -44 19 -55 7 -11 16 -38 20 -60 4 -22 13 -49 20 -60 7 -11
16 -38 20 -60 4 -22 13 -49 20 -60 7 -11 16 -38 20 -60 4 -22 13 -49 20 -60 8
-11 17 -40 21 -63 4 -23 13 -48 20 -56 8 -8 15 -47 18 -101 3 -66 8 -91 21
-100 10 -8 16 -27 16 -51 0 -47 16 -105 31 -115 7 -4 12 -47 13 -114 2 -94 4
-109 21 -122 18 -13 20 -27 21 -180 0 -152 2 -167 20 -180 18 -13 19 -34 20
-739 1 -715 0 -726 -20 -752 -18 -23 -20 -40 -21 -163 0 -121 -2 -139 -19
-158 -15 -17 -20 -38 -21 -101 -1 -60 -6 -84 -19 -99 -13 -15 -18 -39 -20
-100 -2 -62 -6 -85 -21 -101 -13 -14 -18 -37 -19 -79 -1 -42 -7 -65 -20 -80
-12 -14 -19 -38 -20 -74 -1 -31 -9 -65 -19 -80 -9 -14 -17 -39 -17 -54 0 -15
-10 -44 -21 -63 -14 -22 -21 -50 -21 -78 1 -34 -8 -62 -38 -116 -22 -40 -40
-84 -40 -99 0 -14 -18 -59 -40 -99 -22 -40 -40 -84 -40 -97 0 -30 -249 -530
-290 -581 -17 -21 -42 -65 -57 -97 -15 -32 -43 -79 -62 -105 -39 -51 -87 -123
-111 -166 -8 -15 -32 -49 -53 -76 -20 -27 -37 -52 -37 -57 0 -4 -23 -34 -51
-66 -28 -32 -58 -71 -66 -88 -9 -16 -44 -60 -79 -97 -35 -37 -71 -82 -80 -100
-9 -18 -90 -107 -180 -198 -92 -93 -169 -181 -178 -200 -17 -41 -51 -75 -86
-85 -14 -4 -101 -83 -195 -175 -93 -92 -186 -176 -205 -185 -19 -10 -64 -46
-100 -80 -36 -35 -80 -70 -99 -80 -19 -9 -55 -36 -80 -60 -25 -23 -61 -50 -80
-60 -18 -9 -53 -35 -77 -57 -39 -36 -84 -68 -178 -125 -16 -10 -48 -33 -72
-50 -24 -18 -74 -48 -112 -67 -38 -19 -82 -46 -99 -60 -16 -14 -79 -50 -141
-80 -61 -31 -113 -60 -117 -66 -4 -7 1332 -10 4175 -10 2300 0 4187 -3 4193
-6 45 -26 -33 29 -173 121 -91 60 -182 123 -202 141 -21 18 -57 45 -80 60 -24
15 -60 42 -80 60 -21 18 -57 45 -80 60 -24 15 -60 42 -80 60 -21 18 -57 45
-80 60 -24 15 -77 59 -118 99 -41 39 -95 84 -120 99 -63 39 -936 911 -962 961
-11 22 -58 78 -103 125 -46 47 -91 101 -100 120 -10 19 -46 64 -80 100 -35 36
-70 80 -80 99 -9 19 -36 55 -60 80 -23 25 -50 61 -59 79 -9 18 -38 57 -64 86
-26 30 -60 75 -77 102 -16 26 -46 71 -65 100 -19 28 -45 67 -57 85 -11 19 -35
54 -52 79 -17 25 -47 68 -65 95 -19 28 -53 84 -75 126 -22 42 -51 89 -64 105
-13 16 -40 61 -60 100 -20 39 -47 84 -61 101 -14 16 -124 228 -245 471 -122
243 -224 442 -229 442 -4 0 -8 17 -9 38 -2 35 -97 242 -112 242 -3 0 -7 16 -8
36 -1 20 -19 71 -39 113 -20 42 -39 87 -41 101 -2 14 -20 59 -40 100 -21 41
-39 86 -41 100 -2 14 -9 38 -17 55 -7 16 -16 44 -20 60 -4 17 -13 44 -20 60
-7 17 -16 44 -20 60 -4 17 -12 44 -20 60 -7 17 -18 50 -25 75 -7 25 -16 50
-20 55 -4 6 -13 34 -20 63 -7 30 -18 56 -25 58 -7 3 -12 13 -11 22 4 24 -13
85 -27 97 -7 6 -13 36 -14 68 -1 35 -8 68 -18 84 -10 14 -19 39 -22 56 -6 40
-21 77 -30 77 -5 0 -8 24 -9 53 0 29 -8 68 -17 86 -9 19 -17 47 -17 62 0 41
-11 64 -21 47 -7 -10 -9 -9 -9 4 0 9 6 18 12 20 9 3 7 13 -7 34 -10 16 -18 41
-17 57 2 17 -3 30 -13 33 -18 7 -20 31 -3 36 9 3 8 12 -5 31 -11 17 -17 46
-17 81 0 35 -5 60 -15 69 -11 11 -12 16 -3 19 9 3 7 13 -7 34 -10 16 -18 43
-17 62 2 23 -2 32 -13 32 -18 0 -20 27 -3 32 9 3 8 12 -5 31 -11 17 -17 46
-17 81 0 36 -5 60 -16 70 -8 9 -11 16 -5 16 16 0 13 18 -6 38 -14 13 -18 36
-19 97 -2 100 -8 136 -25 149 -10 8 -14 37 -15 91 -2 100 -8 136 -25 149 -10
8 -14 40 -15 111 -2 120 -7 155 -25 166 -10 6 -13 37 -11 133 1 69 -2 127 -7
130 -5 4 -7 15 -4 25 3 12 -2 23 -14 29 -17 10 -19 22 -16 156 1 80 -2 148 -7
151 -5 3 -7 12 -4 20 3 7 -3 22 -14 33 -18 18 -19 33 -17 236 3 180 1 219 -12
231 -8 8 -10 15 -4 15 16 0 13 16 -6 36 -17 17 -18 93 -19 1303 l-1 1286 23
23 23 24 -6 259 c-4 183 -2 259 6 259 6 0 18 14 26 30 14 27 15 58 9 213 l-7
183 27 29 27 29 -7 131 -7 131 27 29 c27 30 31 55 20 139 -4 25 -11 46 -16 46
-5 0 -6 -4 -3 -10 3 -5 1 -10 -4 -10 -7 0 -11 25 -11 63 1 61 1 61 15 32 l13
-30 1 38 c1 20 5 37 11 37 5 0 17 14 26 32 13 25 15 50 12 120 -3 48 -2 88 3
88 5 0 15 13 24 30 12 23 14 50 10 120 -3 55 -1 90 5 90 5 0 17 14 26 31 13
25 14 48 9 120 -5 61 -4 89 4 89 6 0 18 14 27 32 13 25 15 46 10 100 -5 44 -4
68 3 68 6 0 18 14 27 32 13 25 15 46 10 100 -5 44 -4 68 3 68 25 0 43 63 38
132 -3 41 -2 68 4 68 16 0 40 69 36 103 -3 21 4 46 20 74 17 29 23 54 22 85
-2 29 5 54 19 78 14 22 22 51 22 80 0 26 9 63 20 85 12 23 20 59 20 87 0 26 4
50 10 53 5 3 14 25 20 48 6 23 20 63 30 89 11 26 20 65 20 87 0 21 7 52 14 68
16 30 40 101 58 168 6 22 19 58 29 81 11 22 19 58 19 80 0 22 9 57 20 79 11
22 20 47 20 56 0 10 18 55 40 100 22 46 40 91 40 101 0 11 6 31 14 46 8 15 17
44 21 65 4 20 16 54 26 74 11 21 19 45 19 54 0 10 18 55 40 100 22 46 40 91
40 100 0 10 18 55 40 100 22 46 40 91 40 100 0 10 18 55 40 100 22 46 40 91
40 101 0 9 45 108 100 218 55 111 100 210 100 221 0 11 36 91 80 180 44 88 77
165 74 172 -4 7 -4 9 1 5 4 -4 21 9 37 30 42 52 210 390 202 405 -4 7 -4 9 0
5 20 -17 135 169 120 194 -4 6 -3 9 2 5 14 -8 86 94 79 112 -3 8 -3 12 0 9 19
-18 134 170 119 194 -4 6 -3 9 2 5 14 -8 86 94 79 112 -3 8 -3 12 0 9 8 -7 56
45 74 80 7 12 9 28 5 35 -4 6 -4 9 0 5 8 -7 97 86 116 122 6 11 8 26 4 33 -4
6 -4 9 0 5 9 -7 56 43 75 80 7 12 9 28 5 35 -4 6 -4 9 0 6 8 -8 97 85 115 119
7 12 9 28 5 35 -4 6 -4 9 0 5 8 -7 97 86 116 122 6 11 8 26 4 33 -4 6 -4 9 0
6 8 -7 178 166 195 199 7 12 9 28 5 35 -4 6 -4 9 -1 6 8 -7 260 247 276 279 7
12 9 28 5 35 -4 6 -4 9 -1 6 4 -3 146 135 318 306 171 172 329 323 352 336 22
13 91 72 151 130 61 58 129 115 151 127 22 11 60 42 85 67 25 26 70 63 100 83
30 19 83 61 116 92 34 32 80 68 102 81 80 47 134 85 190 132 31 27 71 56 87
64 17 9 43 27 59 40 16 13 63 42 105 64 71 37 119 67 216 138 22 16 69 43 105
61 36 18 78 44 94 57 39 32 830 428 876 438 19 4 80 30 135 58 55 27 120 56
145 63 92 27 147 46 220 79 70 32 109 46 220 80 79 24 144 46 180 60 19 8 54
19 77 25 23 6 45 14 48 19 3 5 33 12 67 16 35 4 72 12 83 19 11 6 49 16 85 22
68 13 145 36 195 59 17 8 55 17 85 21 30 3 64 12 76 19 11 7 59 17 105 20 46
4 91 13 99 20 8 8 53 17 100 20 47 4 92 13 100 20 8 8 53 17 100 20 49 4 92
13 101 22 11 9 53 16 120 20 60 3 110 11 119 18 22 19 82 26 200 26 73 0 109
4 120 13 23 21 82 28 221 30 77 1 131 5 140 12 27 22 95 28 320 28 152 1 230
5 240 12 29 24 109 27 654 28 l560 1 24 -24 c23 -23 25 -23 165 -17 290 13
321 11 359 -27 18 -18 29 -19 141 -12 66 4 123 7 126 8 19 3 89 -16 85 -23
-12 -20 39 -32 109 -26 75 7 139 -1 131 -15 -12 -19 39 -31 106 -25 71 7 142
0 134 -14 -11 -17 23 -25 107 -25 80 0 89 -2 104 -23 12 -17 25 -23 57 -23 75
1 98 -1 93 -7 -14 -13 37 -32 97 -34 36 -2 63 -6 61 -10 -7 -11 33 -29 68 -29
79 -1 97 -2 93 -9 -6 -9 32 -27 75 -35 19 -4 44 -13 55 -19 11 -7 38 -16 59
-20 21 -4 48 -13 60 -21 12 -7 39 -16 61 -20 22 -3 49 -12 60 -19 11 -7 38
-16 60 -20 22 -4 49 -13 60 -20 11 -7 37 -16 57 -20 21 -4 68 -22 105 -40 37
-19 82 -37 100 -40 18 -4 63 -22 100 -41 37 -18 82 -36 99 -39 45 -10 671
-325 730 -368 27 -19 72 -46 101 -60 29 -14 74 -42 101 -62 27 -20 53 -36 56
-36 4 0 31 -18 60 -40 29 -22 56 -40 60 -40 4 0 31 -18 60 -40 29 -22 56 -40
60 -40 5 0 25 -13 45 -29 20 -15 50 -35 66 -44 17 -8 59 -40 94 -71 36 -31 70
-56 78 -56 7 0 55 -41 105 -91 51 -51 109 -99 128 -107 52 -21 843 -813 871
-872 12 -25 57 -80 104 -126 46 -44 90 -97 99 -117 8 -20 35 -58 59 -84 24
-27 55 -68 69 -93 15 -25 45 -62 67 -83 23 -21 41 -44 41 -51 0 -7 17 -36 38
-64 39 -55 85 -123 116 -175 11 -18 34 -51 53 -74 18 -23 33 -46 33 -51 0 -5
15 -29 33 -53 19 -24 42 -59 51 -78 10 -19 29 -44 43 -57 28 -26 63 -32 63
-11 1 33 0 3001 -1 3057 -1 45 -3 57 -8 40 -5 -14 -7 -33 -5 -42 2 -10 -2 -18
-7 -18 -15 0 -7 142 9 148 6 2 13 -5 13 -15 1 -16 2 -16 6 0 2 9 9 17 15 17 6
0 5 7 -3 17 -8 10 -9 14 -2 10 7 -4 847 -7 1867 -7 1292 0 1857 -3 1861 -11 4
-6 12 -8 19 -6 8 3 11 -2714 11 -11073 0 -10533 -1 -11079 -17 -11097 -15 -17
-18 -45 -21 -186 l-3 -167 1013 0 c958 0 1013 1 1013 18 3 879 -2 22427 -5
22430 -5 5 -8 -20 -8 -60 0 -10 -4 -18 -9 -18 -14 0 -5 143 10 148 6 2 13 -5
13 -15 1 -16 2 -16 6 0 2 9 9 17 15 17 6 0 5 7 -3 17 -8 10 -9 14 -2 10 7 -4
856 -7 1887 -7 1306 0 1877 -3 1881 -11 4 -6 12 -8 19 -6 9 4 11 -430 11
-1834 0 -1335 3 -1839 11 -1839 18 0 39 30 78 108 20 40 52 93 72 119 21 28
33 52 29 62 -3 8 -3 12 0 9 19 -18 134 170 119 194 -4 6 -3 9 2 5 14 -8 86 94
79 112 -3 8 -3 13 0 9 7 -7 97 87 114 120 7 12 9 28 5 35 -4 6 -4 9 0 5 9 -7
56 43 75 80 7 12 9 28 5 35 -4 6 -4 9 0 6 8 -8 97 85 115 119 7 12 9 28 5 35
-4 6 -4 9 0 6 8 -8 97 85 115 119 7 12 9 28 5 35 -4 6 -4 9 0 6 8 -7 178 166
195 199 7 12 9 28 5 35 -4 6 -4 9 -1 6 8 -7 300 287 316 319 7 12 9 28 5 35
-4 6 -4 9 -1 6 4 -3 75 63 157 146 83 83 169 162 192 176 23 13 110 90 193
170 82 81 168 156 190 167 22 11 60 42 85 67 25 26 70 63 100 83 30 20 75 53
100 74 25 21 61 49 81 61 106 65 136 86 185 129 30 26 89 66 131 88 73 38 122
69 218 139 22 16 87 52 145 81 58 29 118 64 134 77 38 32 431 228 476 238 19
4 82 31 140 60 58 29 121 56 140 60 19 4 62 21 95 38 33 16 80 36 105 43 58
17 136 42 180 59 46 18 123 43 183 60 26 7 53 18 60 23 7 5 30 13 52 16 22 4
49 13 61 21 11 7 47 16 80 20 32 4 68 13 79 20 11 6 47 15 80 19 33 4 69 14
81 21 11 7 47 16 80 20 32 4 68 13 80 20 11 7 59 17 105 20 46 4 91 13 99 20
8 8 53 17 100 20 47 4 92 13 100 20 17 14 125 29 183 26 23 -2 46 3 55 12 24
20 90 29 206 28 71 0 104 3 115 13 27 23 87 29 302 30 137 1 211 5 220 12 29
24 106 27 574 28 l480 1 23 -23 c23 -23 25 -23 185 -16 89 3 163 8 165 9 9 7
76 -19 93 -36 21 -21 80 -25 154 -10 41 7 132 -8 120 -21 -17 -17 42 -30 109
-24 75 7 139 -1 131 -15 -12 -18 38 -31 95 -24 35 4 60 3 64 -3 3 -6 16 -8 28
-4 13 3 19 1 15 -5 -10 -16 39 -36 72 -30 17 4 33 2 37 -4 3 -6 18 -8 33 -4
14 4 23 3 19 -1 -13 -12 29 -35 64 -35 79 -1 97 -2 93 -9 -6 -9 32 -27 75 -35
19 -4 45 -13 58 -21 12 -8 42 -16 66 -17 24 -1 42 -5 40 -8 -7 -11 43 -31 84
-32 22 -1 38 -5 36 -8 -7 -11 43 -31 84 -32 22 -1 38 -5 36 -8 -5 -9 35 -27
76 -34 19 -4 44 -13 55 -19 11 -7 36 -16 55 -20 20 -3 81 -29 135 -56 55 -28
118 -55 140 -61 59 -15 362 -167 420 -209 28 -21 91 -57 140 -80 50 -24 107
-56 128 -73 21 -16 68 -46 106 -66 99 -52 152 -88 237 -158 41 -35 80 -63 86
-63 5 0 27 -13 47 -29 20 -15 51 -36 69 -45 18 -9 63 -45 100 -79 37 -35 87
-75 112 -89 25 -15 70 -52 100 -84 30 -31 71 -63 90 -71 54 -23 635 -604 667
-668 14 -28 60 -83 102 -125 43 -41 90 -99 106 -127 15 -29 45 -68 65 -87 21
-19 47 -55 60 -80 12 -25 37 -59 56 -74 19 -15 42 -44 51 -63 10 -19 30 -53
46 -75 83 -119 100 -145 133 -209 20 -38 49 -86 64 -105 15 -19 51 -82 80
-140 29 -58 65 -121 80 -140 37 -47 157 -286 165 -330 4 -19 40 -100 80 -180
40 -80 76 -161 80 -180 4 -19 13 -44 19 -55 7 -11 16 -37 20 -59 4 -21 22 -68
41 -103 18 -35 36 -82 40 -103 4 -21 13 -44 21 -51 8 -6 14 -29 14 -51 0 -46
15 -78 35 -78 20 0 49 46 39 62 -4 7 -4 10 1 6 4 -4 21 9 37 30 42 51 130 230
122 245 -4 7 -4 9 0 5 20 -18 135 169 120 195 -4 7 -4 9 0 5 9 -7 56 43 75 80
7 12 9 28 5 35 -4 6 -4 9 0 5 9 -7 56 43 75 80 7 12 9 28 5 34 -4 6 -3 9 2 5
13 -8 86 93 79 110 -2 8 -1 12 3 9 12 -7 83 96 77 113 -3 8 -3 12 0 9 8 -7 56
45 74 80 7 12 9 28 5 35 -4 6 -4 9 0 6 8 -8 97 85 115 119 7 12 9 28 5 35 -4
6 -4 9 0 6 8 -8 97 85 115 119 7 12 9 28 5 35 -4 6 -4 9 0 6 8 -8 97 85 115
119 7 12 9 28 5 35 -4 6 -4 9 0 6 8 -7 178 166 195 199 7 12 9 28 5 35 -4 6
-4 9 -1 6 8 -7 380 367 396 399 7 12 9 28 5 35 -4 6 -4 9 0 6 3 -4 38 26 76
65 38 39 88 82 111 96 24 14 120 100 214 191 93 91 188 175 210 187 22 11 69
51 105 87 36 37 90 83 120 103 30 20 75 53 100 74 25 21 61 49 81 61 86 53
138 89 189 132 31 25 72 56 91 68 60 37 132 84 174 115 22 17 69 44 105 62 36
18 78 44 94 57 39 32 910 468 956 478 19 4 67 23 105 41 65 31 100 43 215 79
74 23 143 46 180 60 37 14 106 37 180 60 101 31 146 47 175 60 17 8 55 17 85
21 30 3 64 12 75 19 11 7 47 15 80 19 33 4 69 14 81 21 11 7 47 16 80 20 32 4
68 13 80 20 11 7 59 17 105 20 46 4 91 13 99 20 8 8 53 17 100 20 47 4 92 13
100 20 17 15 118 28 205 27 36 -1 66 4 75 12 22 19 80 28 201 30 60 0 112 6
120 12 25 20 111 28 310 29 130 0 201 4 210 11 29 24 107 27 616 28 511 1 522
1 537 -19 14 -19 26 -20 260 -20 233 0 246 -1 260 -20 13 -18 27 -20 173 -21
183 -1 195 -2 188 -14 -13 -20 39 -33 111 -26 77 6 137 -1 129 -15 -13 -19 40
-31 109 -25 75 7 139 -1 131 -15 -12 -18 38 -31 95 -24 35 4 60 3 64 -3 3 -6
16 -8 29 -5 12 3 19 2 15 -2 -12 -13 28 -36 64 -36 80 -1 97 -2 92 -10 -9 -15
38 -31 72 -26 19 3 36 1 40 -4 3 -6 17 -8 31 -4 15 3 22 2 19 -4 -10 -16 34
-34 70 -28 19 3 36 1 40 -4 3 -6 17 -8 31 -4 14 3 22 2 19 -3 -8 -14 37 -34
82 -35 22 -1 38 -5 36 -8 -7 -11 43 -31 84 -32 22 -1 38 -5 36 -8 -5 -9 35
-27 76 -34 19 -4 44 -13 55 -19 11 -7 38 -16 60 -20 22 -4 49 -13 60 -20 11
-7 37 -16 58 -20 20 -4 66 -22 101 -40 34 -18 78 -36 97 -40 45 -8 753 -361
802 -399 21 -16 68 -45 103 -63 36 -18 87 -49 114 -69 26 -19 51 -35 55 -35 4
0 24 -13 44 -29 20 -15 50 -35 66 -44 17 -8 59 -40 94 -71 36 -31 69 -56 75
-56 7 0 36 -22 66 -50 30 -27 71 -57 90 -66 19 -9 91 -73 160 -142 69 -69 140
-131 159 -139 51 -22 285 -255 311 -311 14 -29 60 -83 125 -146 61 -60 109
-116 119 -138 8 -21 44 -66 78 -100 35 -35 74 -84 87 -110 12 -26 38 -60 56
-77 19 -16 43 -47 54 -68 21 -37 59 -94 120 -179 16 -22 43 -69 61 -105 18
-35 45 -80 60 -99 15 -19 42 -64 60 -100 18 -36 45 -81 60 -100 36 -47 356
-685 365 -730 4 -19 22 -63 40 -97 18 -35 36 -79 40 -99 3 -20 21 -65 40 -100
18 -35 36 -81 40 -101 3 -21 12 -47 19 -58 7 -11 16 -38 20 -60 4 -22 23 -69
41 -105 19 -36 37 -82 41 -103 3 -21 12 -43 19 -50 6 -7 15 -41 18 -76 4 -36
13 -74 21 -85 7 -12 16 -39 20 -61 4 -22 13 -49 20 -60 8 -11 17 -40 21 -63 4
-23 13 -49 21 -56 8 -8 14 -32 14 -53 0 -47 18 -113 30 -113 6 0 10 -17 10
-37 1 -51 17 -117 29 -121 6 -2 11 -22 11 -45 0 -51 17 -117 30 -117 6 0 10
-19 10 -43 0 -47 15 -108 29 -116 5 -3 11 -46 14 -95 3 -66 8 -92 20 -101 12
-8 17 -34 19 -99 3 -71 7 -91 22 -101 15 -12 18 -30 20 -121 2 -89 5 -108 20
-119 14 -11 18 -31 20 -120 1 -92 4 -109 21 -121 16 -12 19 -29 20 -140 1
-113 3 -128 20 -140 18 -13 20 -28 20 -161 1 -132 3 -147 21 -160 18 -13 19
-28 20 -200 0 -171 2 -187 20 -200 18 -13 19 -29 20 -280 0 -251 1 -266 20
-280 19 -14 19 -101 20 -7406 l1 -7392 4009 -3 c3401 -2 4016 0 4057 12 l47
14 0 -13174 0 -13174 -33560 0 c-33553 0 -33560 0 -33560 20 0 20 -7 20 -360
20 -353 0 -360 0 -360 20 0 19 -7 20 -260 20 -253 0 -260 1 -260 20 0 19 -7
20 -200 20 -193 0 -200 1 -200 20 0 19 -7 20 -180 20 -173 0 -180 1 -180 20 0
19 -7 20 -160 20 -153 0 -160 1 -160 20 0 19 -7 20 -140 20 -133 0 -140 1
-140 20 0 19 -7 20 -140 20 -133 0 -140 1 -140 20 0 19 -7 20 -120 20 -113 0
-120 1 -120 20 0 19 -7 20 -120 20 -113 0 -120 1 -120 20 0 19 -7 20 -120 20
-113 0 -120 1 -120 20 0 19 -7 20 -100 20 -93 0 -100 1 -100 20 0 19 -7 20
-100 20 -93 0 -100 1 -100 20 0 19 -7 20 -100 20 -93 0 -100 1 -100 20 0 18
-7 20 -80 20 -73 0 -80 2 -80 20 0 19 -7 20 -100 20 -93 0 -100 1 -100 20 0
18 -7 20 -80 20 -73 0 -80 2 -80 20 0 18 -7 20 -80 20 -73 0 -80 2 -80 20 0
18 -7 20 -80 20 -73 0 -80 2 -80 20 0 18 -7 20 -80 20 -73 0 -80 2 -80 20 0
18 -7 20 -80 20 -73 0 -80 2 -80 20 0 18 -7 20 -80 20 -73 0 -80 2 -80 20 0
18 -7 20 -60 20 -53 0 -60 2 -60 20 0 18 -7 20 -80 20 -73 0 -80 2 -80 20 0
18 -7 20 -60 20 -53 0 -60 2 -60 20 0 18 -7 20 -60 20 -53 0 -60 2 -60 20 0
18 -7 20 -80 20 -73 0 -80 2 -80 20 0 18 -7 20 -60 20 -53 0 -60 2 -60 20 0
18 -7 20 -60 20 -53 0 -60 2 -60 20 0 18 -7 20 -60 20 -53 0 -60 2 -60 20 0
18 -7 20 -60 20 -53 0 -60 2 -60 20 0 18 -7 20 -60 20 -53 0 -60 2 -60 20 0
18 -7 20 -60 20 -53 0 -60 2 -60 20 0 18 -7 20 -60 20 -53 0 -60 2 -60 20 0
18 -7 20 -60 20 -53 0 -60 2 -60 20 0 18 -7 20 -60 20 -53 0 -60 2 -60 20 0
17 -7 20 -40 20 -33 0 -40 3 -40 20 0 18 -7 20 -60 20 -53 0 -60 2 -60 20 0
18 -7 20 -60 20 -53 0 -60 2 -60 20 0 17 -7 20 -40 20 -33 0 -40 3 -40 20 0
18 -7 20 -60 20 -53 0 -60 2 -60 20 0 17 -7 20 -40 20 -33 0 -40 3 -40 20 0
18 -7 20 -60 20 -53 0 -60 2 -60 20 0 17 -7 20 -40 20 -33 0 -40 3 -40 20 0
18 -7 20 -60 20 -53 0 -60 2 -60 20 0 17 -7 20 -40 20 -33 0 -40 3 -40 20 0
17 -7 20 -40 20 -33 0 -40 3 -40 20 0 18 -7 20 -60 20 -53 0 -60 2 -60 20 0
17 -7 20 -40 20 -33 0 -40 3 -40 20 0 17 -7 20 -40 20 -33 0 -40 3 -40 20 0
18 -7 20 -60 20 -53 0 -60 2 -60 20 0 17 -7 20 -40 20 -33 0 -40 3 -40 20 0
17 -7 20 -40 20 -33 0 -40 3 -40 20 0 17 -7 20 -40 20 -33 0 -40 3 -40 20 0
17 -7 20 -40 20 -33 0 -40 3 -40 20 0 17 -7 20 -40 20 -33 0 -40 3 -40 20 0
17 -7 20 -40 20 -33 0 -40 3 -40 20 0 18 -7 20 -60 20 -53 0 -60 2 -60 20 0
17 -7 20 -40 20 -33 0 -40 3 -40 20 0 17 -7 20 -40 20 -33 0 -40 3 -40 20 0
17 -7 20 -40 20 -33 0 -40 3 -40 20 0 17 -7 20 -40 20 -33 0 -40 3 -40 20 0
17 -7 20 -40 20 -33 0 -40 3 -40 20 0 13 -7 20 -20 20 -13 0 -20 7 -20 20 0
17 -7 20 -40 20 -33 0 -40 3 -40 20 0 17 -7 20 -40 20 -33 0 -40 3 -40 20 0
17 -7 20 -40 20 -33 0 -40 3 -40 20 0 17 -7 20 -40 20 -33 0 -40 3 -40 20 0
17 -7 20 -40 20 -33 0 -40 3 -40 20 0 17 -7 20 -40 20 -33 0 -40 3 -40 20 0
17 -7 20 -40 20 -33 0 -40 3 -40 20 0 13 -7 20 -20 20 -13 0 -20 7 -20 20 0
17 -7 20 -40 20 -33 0 -40 3 -40 20 0 17 -7 20 -40 20 -33 0 -40 3 -40 20 0
17 -7 20 -40 20 -33 0 -40 3 -40 20 0 13 -7 20 -20 20 -13 0 -20 7 -20 20 0
17 -7 20 -40 20 -33 0 -40 3 -40 20 0 17 -7 20 -40 20 -33 0 -40 3 -40 20 0
13 -7 20 -20 20 -13 0 -20 7 -20 20 0 17 -7 20 -40 20 -33 0 -40 3 -40 20 0
17 -7 20 -40 20 -33 0 -40 3 -40 20 0 13 -7 20 -20 20 -13 0 -20 7 -20 20 0
17 -7 20 -40 20 -33 0 -40 3 -40 20 0 17 -7 20 -40 20 -33 0 -40 3 -40 20 0
13 -7 20 -20 20 -13 0 -20 7 -20 20 0 17 -7 20 -40 20 -33 0 -40 3 -40 20 0
13 -7 20 -20 20 -13 0 -20 7 -20 20 0 17 -7 20 -40 20 -33 0 -40 3 -40 20 0
17 -7 20 -40 20 -33 0 -40 3 -40 20 0 13 -7 20 -20 20 -13 0 -20 7 -20 20 0
17 -7 20 -40 20 -33 0 -40 3 -40 20 0 13 -7 20 -20 20 -13 0 -20 7 -20 20 0
17 -7 20 -40 20 -33 0 -40 3 -40 20 0 13 -7 20 -20 20 -13 0 -20 7 -20 20 0
17 -7 20 -40 20 -33 0 -40 3 -40 20 0 13 -7 20 -20 20 -13 0 -20 7 -20 20 0
17 -7 20 -40 20 -33 0 -40 3 -40 20 0 13 -7 20 -20 20 -13 0 -20 7 -20 20 0
17 -7 20 -40 20 -33 0 -40 3 -40 20 0 13 -7 20 -20 20 -13 0 -20 7 -20 20 0
13 -7 20 -20 20 -13 0 -20 7 -20 20 0 17 -7 20 -40 20 -33 0 -40 3 -40 20 0
13 -7 20 -20 20 -13 0 -20 7 -20 20 0 17 -7 20 -40 20 -33 0 -40 3 -40 20 0
13 -7 20 -20 20 -13 0 -20 7 -20 20 0 13 -7 20 -20 20 -13 0 -20 7 -20 20 0
17 -7 20 -40 20 -33 0 -40 3 -40 20 0 13 -7 20 -20 20 -13 0 -20 7 -20 20 0
13 -7 20 -20 20 -13 0 -20 7 -20 20 0 17 -7 20 -40 20 -33 0 -40 3 -40 20 0
13 -7 20 -20 20 -13 0 -20 7 -20 20 0 13 -7 20 -20 20 -13 0 -20 7 -20 20 0
17 -7 20 -40 20 -33 0 -40 3 -40 20 0 13 -7 20 -20 20 -13 0 -20 7 -20 20 0
13 -7 20 -20 20 -13 0 -20 7 -20 20 0 17 -7 20 -40 20 -33 0 -40 3 -40 20 0
13 -7 20 -20 20 -13 0 -20 7 -20 20 0 13 -7 20 -20 20 -13 0 -20 7 -20 20 0
13 -7 20 -20 20 -13 0 -20 7 -20 20 0 17 -7 20 -40 20 -33 0 -40 3 -40 20 0
13 -7 20 -20 20 -13 0 -20 7 -20 20 0 13 -7 20 -20 20 -13 0 -20 7 -20 20 0
13 -7 20 -20 20 -13 0 -20 7 -20 20 0 17 -7 20 -40 20 -33 0 -40 3 -40 20 0
13 -7 20 -20 20 -13 0 -20 7 -20 20 0 13 -7 20 -20 20 -13 0 -20 7 -20 20 0
13 -7 20 -20 20 -13 0 -20 7 -20 20 0 13 -7 20 -20 20 -13 0 -20 7 -20 20 0
17 -7 20 -40 20 -33 0 -40 3 -40 20 0 13 -7 20 -20 20 -13 0 -20 7 -20 20 0
13 -7 20 -20 20 -13 0 -20 7 -20 20 0 13 -7 20 -20 20 -13 0 -20 7 -20 20 0
13 -7 20 -20 20 -13 0 -20 7 -20 20 0 13 -7 20 -20 20 -13 0 -20 7 -20 20 0
17 -7 20 -40 20 -33 0 -40 3 -40 20 0 13 -7 20 -20 20 -13 0 -20 7 -20 20 0
13 -7 20 -20 20 -13 0 -20 7 -20 20 0 13 -7 20 -20 20 -13 0 -20 7 -20 20 0
13 -7 20 -20 20 -13 0 -20 7 -20 20 0 13 -7 20 -20 20 -13 0 -20 7 -20 20 0
13 -7 20 -20 20 -13 0 -20 7 -20 20 0 13 -7 20 -20 20 -13 0 -20 7 -20 20 0
13 -7 20 -20 20 -13 0 -20 7 -20 20 0 13 -7 20 -20 20 -13 0 -20 7 -20 20 0
17 -7 20 -40 20 -33 0 -40 3 -40 20 0 13 -7 20 -20 20 -13 0 -20 7 -20 20 0
13 -7 20 -20 20 -13 0 -20 7 -20 20 0 13 -7 20 -20 20 -13 0 -20 7 -20 20 0
13 -7 20 -20 20 -13 0 -20 7 -20 20 0 13 -7 20 -20 20 -13 0 -20 7 -20 20 0
13 -7 20 -20 20 -13 0 -20 7 -20 20 0 13 -7 20 -20 20 -13 0 -20 7 -20 20 0
13 -7 20 -20 20 -13 0 -20 7 -20 20 0 13 -7 20 -20 20 -13 0 -20 7 -20 20 0
13 -7 20 -20 20 -13 0 -20 7 -20 20 0 13 -7 20 -20 20 -13 0 -20 7 -20 20 0
13 -7 20 -20 20 -13 0 -20 7 -20 20 0 13 -7 20 -20 20 -13 0 -20 7 -20 20 0
13 -7 20 -20 20 -13 0 -20 7 -20 20 0 13 -7 20 -20 20 -13 0 -20 7 -20 20 0
13 -7 20 -20 20 -13 0 -20 7 -20 20 0 13 -7 20 -20 20 -13 0 -20 7 -20 20 0
13 -7 20 -20 20 -13 0 -20 7 -20 20 0 13 -7 20 -20 20 -13 0 -20 7 -20 20 0
13 -7 20 -20 20 -13 0 -20 7 -20 20 0 13 -7 20 -20 20 -13 0 -20 7 -20 20 0
13 -7 20 -20 20 -13 0 -20 7 -20 20 0 13 -7 20 -20 20 -13 0 -20 7 -20 20 0
13 -7 20 -20 20 -13 0 -20 7 -20 20 0 13 -7 20 -20 20 -13 0 -20 7 -20 20 0
13 -7 20 -20 20 -17 0 -20 7 -20 40 0 33 -3 40 -20 40 -13 0 -20 7 -20 20 0
13 -7 20 -20 20 -13 0 -20 7 -20 20 0 13 -7 20 -20 20 -13 0 -20 7 -20 20 0
13 -7 20 -20 20 -13 0 -20 7 -20 20 0 13 -7 20 -20 20 -13 0 -20 7 -20 20 0
13 -7 20 -20 20 -13 0 -20 7 -20 20 0 13 -7 20 -20 20 -13 0 -20 7 -20 20 0
13 -7 20 -20 20 -13 0 -20 7 -20 20 0 13 -7 20 -20 20 -13 0 -20 7 -20 20 0
13 -7 20 -20 20 -17 0 -20 7 -20 40 0 33 -3 40 -20 40 -13 0 -20 7 -20 20 0
13 -7 20 -20 20 -13 0 -20 7 -20 20 0 13 -7 20 -20 20 -13 0 -20 7 -20 20 0
13 -7 20 -20 20 -13 0 -20 7 -20 20 0 13 -7 20 -20 20 -13 0 -20 7 -20 20 0
13 -7 20 -20 20 -17 0 -20 7 -20 40 0 33 -3 40 -20 40 -13 0 -20 7 -20 20 0
13 -7 20 -20 20 -13 0 -20 7 -20 20 0 13 -7 20 -20 20 -13 0 -20 7 -20 20 0
13 -7 20 -20 20 -13 0 -20 7 -20 20 0 13 -7 20 -20 20 -17 0 -20 7 -20 40 0
33 -3 40 -20 40 -13 0 -20 7 -20 20 0 13 -7 20 -20 20 -13 0 -20 7 -20 20 0
13 -7 20 -20 20 -13 0 -20 7 -20 20 0 13 -7 20 -20 20 -17 0 -20 7 -20 40 0
33 -3 40 -20 40 -13 0 -20 7 -20 20 0 13 -7 20 -20 20 -13 0 -20 7 -20 20 0
13 -7 20 -20 20 -13 0 -20 7 -20 20 0 13 -7 20 -20 20 -17 0 -20 7 -20 40 0
33 -3 40 -20 40 -13 0 -20 7 -20 20 0 13 -7 20 -20 20 -13 0 -20 7 -20 20 0
13 -7 20 -20 20 -17 0 -20 7 -20 40 0 33 -3 40 -20 40 -13 0 -20 7 -20 20 0
13 -7 20 -20 20 -13 0 -20 7 -20 20 0 13 -7 20 -20 20 -17 0 -20 7 -20 40 0
33 -3 40 -20 40 -13 0 -20 7 -20 20 0 13 -7 20 -20 20 -13 0 -20 7 -20 20 0
13 -7 20 -20 20 -17 0 -20 7 -20 40 0 33 -3 40 -20 40 -13 0 -20 7 -20 20 0
13 -7 20 -20 20 -13 0 -20 7 -20 20 0 13 -7 20 -20 20 -17 0 -20 7 -20 40 0
33 -3 40 -20 40 -13 0 -20 7 -20 20 0 13 -7 20 -20 20 -17 0 -20 7 -20 40 0
33 -3 40 -20 40 -13 0 -20 7 -20 20 0 13 -7 20 -20 20 -13 0 -20 7 -20 20 0
13 -7 20 -20 20 -17 0 -20 7 -20 40 0 33 -3 40 -20 40 -13 0 -20 7 -20 20 0
13 -7 20 -20 20 -17 0 -20 7 -20 40 0 33 -3 40 -20 40 -13 0 -20 7 -20 20 0
13 -7 20 -20 20 -17 0 -20 7 -20 40 0 33 -3 40 -20 40 -13 0 -20 7 -20 20 0
13 -7 20 -20 20 -17 0 -20 7 -20 40 0 33 -3 40 -20 40 -13 0 -20 7 -20 20 0
13 -7 20 -20 20 -17 0 -20 7 -20 40 0 33 -3 40 -20 40 -13 0 -20 7 -20 20 0
13 -7 20 -20 20 -17 0 -20 7 -20 40 0 33 -3 40 -20 40 -13 0 -20 7 -20 20 0
13 -7 20 -20 20 -17 0 -20 7 -20 40 0 33 -3 40 -20 40 -13 0 -20 7 -20 20 0
13 -7 20 -20 20 -17 0 -20 7 -20 40 0 33 -3 40 -20 40 -17 0 -20 7 -20 40 0
33 -3 40 -20 40 -13 0 -20 7 -20 20 0 13 -7 20 -20 20 -17 0 -20 7 -20 40 0
33 -3 40 -20 40 -17 0 -20 7 -20 40 0 33 -3 40 -20 40 -13 0 -20 7 -20 20 0
13 -7 20 -20 20 -17 0 -20 7 -20 40 0 33 -3 40 -20 40 -17 0 -20 7 -20 40 0
33 -3 40 -20 40 -13 0 -20 7 -20 20 0 13 -7 20 -20 20 -17 0 -20 7 -20 40 0
33 -3 40 -20 40 -17 0 -20 7 -20 40 0 33 -3 40 -20 40 -13 0 -20 7 -20 20 0
13 -7 20 -20 20 -17 0 -20 7 -20 40 0 33 -3 40 -20 40 -17 0 -20 7 -20 40 0
33 -3 40 -20 40 -17 0 -20 7 -20 40 0 33 -3 40 -20 40 -17 0 -20 7 -20 40 0
33 -3 40 -20 40 -13 0 -20 7 -20 20 0 13 -7 20 -20 20 -17 0 -20 7 -20 40 0
33 -3 40 -20 40 -17 0 -20 7 -20 40 0 33 -3 40 -20 40 -17 0 -20 7 -20 40 0
33 -3 40 -20 40 -17 0 -20 7 -20 40 0 33 -3 40 -20 40 -17 0 -20 7 -20 40 0
33 -3 40 -20 40 -17 0 -20 7 -20 40 0 33 -3 40 -20 40 -17 0 -20 7 -20 40 0
33 -3 40 -20 40 -17 0 -20 7 -20 40 0 33 -3 40 -20 40 -17 0 -20 7 -20 40 0
33 -3 40 -20 40 -17 0 -20 7 -20 40 0 33 -3 40 -20 40 -17 0 -20 7 -20 40 0
33 -3 40 -20 40 -17 0 -20 7 -20 40 0 33 -3 40 -20 40 -17 0 -20 7 -20 40 0
33 -3 40 -20 40 -17 0 -20 7 -20 40 0 33 -3 40 -20 40 -17 0 -20 7 -20 40 0
33 -3 40 -20 40 -17 0 -20 7 -20 40 0 33 -3 40 -20 40 -17 0 -20 7 -20 40 0
33 -3 40 -20 40 -18 0 -20 7 -20 60 0 53 -2 60 -20 60 -17 0 -20 7 -20 40 0
33 -3 40 -20 40 -17 0 -20 7 -20 40 0 33 -3 40 -20 40 -17 0 -20 7 -20 40 0
33 -3 40 -20 40 -18 0 -20 7 -20 60 0 53 -2 60 -20 60 -17 0 -20 7 -20 40 0
33 -3 40 -20 40 -17 0 -20 7 -20 40 0 33 -3 40 -20 40 -18 0 -20 7 -20 60 0
53 -2 60 -20 60 -17 0 -20 7 -20 40 0 33 -3 40 -20 40 -18 0 -20 7 -20 60 0
53 -2 60 -20 60 -17 0 -20 7 -20 40 0 33 -3 40 -20 40 -18 0 -20 7 -20 60 0
53 -2 60 -20 60 -17 0 -20 7 -20 40 0 33 -3 40 -20 40 -18 0 -20 7 -20 60 0
53 -2 60 -20 60 -17 0 -20 7 -20 40 0 33 -3 40 -20 40 -18 0 -20 7 -20 60 0
53 -2 60 -20 60 -18 0 -20 7 -20 60 0 53 -2 60 -20 60 -18 0 -20 7 -20 60 0
53 -2 60 -20 60 -17 0 -20 7 -20 40 0 33 -3 40 -20 40 -18 0 -20 7 -20 60 0
53 -2 60 -20 60 -18 0 -20 7 -20 60 0 53 -2 60 -20 60 -18 0 -20 7 -20 60 0
53 -2 60 -20 60 -18 0 -20 7 -20 60 0 53 -2 60 -20 60 -18 0 -20 7 -20 60 0
53 -2 60 -20 60 -18 0 -20 7 -20 60 0 53 -2 60 -20 60 -18 0 -20 7 -20 80 0
73 -2 80 -20 80 -18 0 -20 7 -20 60 0 53 -2 60 -20 60 -18 0 -20 7 -20 60 0
53 -2 60 -20 60 -18 0 -20 7 -20 80 0 73 -2 80 -20 80 -18 0 -20 7 -20 60 0
53 -2 60 -20 60 -18 0 -20 7 -20 80 0 73 -2 80 -20 80 -18 0 -20 7 -20 60 0
53 -2 60 -20 60 -18 0 -20 7 -20 80 0 73 -2 80 -20 80 -18 0 -20 7 -20 80 0
73 -2 80 -20 80 -18 0 -20 7 -20 80 0 73 -2 80 -20 80 -18 0 -20 7 -20 80 0
73 -2 80 -20 80 -18 0 -20 7 -20 80 0 73 -2 80 -20 80 -19 0 -20 7 -20 100 0
93 -1 100 -20 100 -18 0 -20 7 -20 80 0 73 -2 80 -20 80 -19 0 -20 7 -20 100
0 93 -1 100 -20 100 -19 0 -20 7 -20 100 0 93 -1 100 -20 100 -19 0 -20 7 -20
100 0 93 -1 100 -20 100 -19 0 -20 7 -20 120 0 113 -1 120 -20 120 -19 0 -20
7 -20 100 0 93 -1 100 -20 100 -19 0 -20 7 -20 120 0 113 -1 120 -20 120 -19
0 -20 7 -20 140 0 133 -1 140 -20 140 -19 0 -20 7 -20 140 0 133 -1 140 -20
140 -19 0 -20 7 -20 160 0 153 -1 160 -20 160 -19 0 -20 7 -20 160 0 153 -1
160 -20 160 -19 0 -20 7 -20 200 0 193 -1 200 -20 200 -19 0 -20 7 -20 240 0
233 -1 240 -20 240 -20 0 -20 7 -20 320 0 313 0 320 -20 320 -20 0 -20 7 -20
2591 l0 2591 22 -8 c33 -12 7978 -17 7978 -4 0 5 -18 14 -40 20 -36 10 -40 14
-40 43 -1 18 -1 873 0 1900 1 1725 -3 2085 -20 2017 -3 -14 -6 -42 -5 -62 1
-21 -2 -38 -6 -38 -8 0 -17 201 -11 220 9 26 21 5 24 -42 l4 -53 8 61 c8 57
10 61 32 56 15 -3 24 -11 24 -22 0 -20 69 -86 109 -103 15 -7 44 -24 66 -40
121 -83 143 -98 170 -113 16 -10 53 -34 81 -56 28 -21 54 -38 58 -38 4 0 31
-18 60 -40 29 -22 56 -40 60 -40 4 0 31 -18 60 -40 29 -22 56 -40 60 -40 5 0
25 -13 45 -29 20 -15 66 -44 104 -64 37 -20 89 -51 115 -70 26 -18 70 -45 99
-59 29 -14 74 -41 100 -60 26 -19 125 -72 218 -118 94 -47 193 -101 220 -121
58 -43 259 -143 307 -153 18 -4 118 -49 223 -100 104 -52 204 -97 222 -101 18
-3 63 -21 100 -40 37 -18 83 -36 102 -40 19 -4 62 -22 96 -40 35 -18 80 -36
101 -39 22 -4 48 -13 59 -20 11 -7 37 -16 58 -20 20 -4 66 -22 101 -40 35 -18
81 -37 102 -40 22 -4 49 -14 62 -22 12 -8 42 -16 66 -17 24 -1 42 -5 40 -8 -7
-11 43 -31 84 -32 22 -1 38 -5 36 -9 -9 -14 34 -27 98 -30 36 -2 64 -6 62 -9
-7 -11 43 -31 84 -32 22 -1 38 -5 36 -9 -7 -11 33 -29 68 -29 78 -1 98 -2 93
-7 -13 -13 39 -32 98 -34 36 -2 63 -5 61 -7 -12 -13 42 -31 99 -33 36 -2 63
-6 61 -9 -8 -13 46 -31 75 -26 17 4 33 2 37 -4 3 -6 17 -8 31 -4 15 3 22 2 19
-4 -13 -20 36 -33 95 -27 33 4 60 3 63 -3 3 -5 16 -7 28 -3 14 3 19 1 14 -6
-13 -21 33 -34 95 -27 43 5 59 4 59 -5 0 -8 9 -10 26 -6 16 4 23 3 20 -3 -15
-23 37 -33 135 -26 73 5 103 4 114 -5 8 -7 15 -10 15 -6 0 3 9 -3 20 -14 22
-22 78 -26 155 -11 47 8 104 -4 121 -28 11 -14 36 -16 176 -16 155 0 164 -1
185 -22 22 -22 24 -22 285 -16 257 6 364 1 353 -17 -3 -5 2 -13 12 -17 27 -13
819 -9 835 4 25 20 114 26 369 27 174 1 260 5 270 12 22 18 85 26 220 28 75 0
132 5 140 12 19 15 99 26 191 26 53 0 80 4 88 13 7 8 45 16 100 21 53 4 94 12
100 19 7 8 47 16 98 20 48 4 94 13 102 20 8 7 42 16 75 20 33 3 69 13 81 20
11 7 47 16 80 20 32 4 68 13 79 20 11 6 47 15 80 20 33 4 69 12 80 18 11 7 40
17 65 24 81 21 144 44 215 77 39 18 86 37 105 41 44 9 518 246 574 286 77 56
141 99 171 115 17 9 52 37 79 61 28 25 64 51 80 60 38 19 362 337 382 376 8
15 12 33 8 40 -4 7 -4 9 0 6 8 -8 97 85 115 119 7 12 9 28 5 35 -4 6 -4 9 0 5
17 -15 69 67 170 269 58 117 110 229 115 250 13 52 39 128 63 187 13 32 18 60
14 81 -5 26 -1 42 20 72 24 35 25 44 20 108 -6 66 -4 71 20 94 25 24 25 25 18
136 -6 108 -6 112 18 137 l24 26 -2 294 c-2 314 -4 346 -25 362 -11 8 -13 35
-11 107 2 78 0 100 -13 113 -9 9 -12 16 -6 16 16 0 13 18 -6 38 -14 13 -18 36
-19 95 -1 52 -7 84 -18 101 -9 14 -16 35 -16 46 0 11 -9 39 -19 63 -10 23 -25
64 -31 90 -7 27 -18 51 -24 53 -6 2 -11 20 -12 40 -1 39 -145 342 -195 409
-32 42 -76 109 -122 184 -16 25 -46 64 -66 86 -21 22 -49 60 -64 85 -32 56
-565 587 -627 625 -25 15 -62 43 -82 61 -21 18 -57 45 -80 60 -24 14 -56 39
-73 54 -41 38 -304 214 -368 246 -29 15 -72 41 -97 59 -25 18 -70 45 -100 60
-30 15 -75 42 -100 60 -58 42 -674 350 -720 360 -19 4 -100 40 -180 80 -80 40
-161 76 -180 80 -19 4 -64 22 -100 40 -36 18 -81 36 -100 40 -19 4 -64 22
-100 40 -36 18 -81 36 -100 40 -19 4 -64 22 -100 40 -36 18 -81 36 -100 40
-19 4 -64 22 -100 40 -36 18 -81 36 -100 40 -19 4 -64 22 -100 40 -36 18 -81
36 -100 40 -19 4 -64 22 -100 40 -36 18 -81 36 -100 40 -19 4 -64 22 -100 40
-36 18 -81 36 -100 40 -19 4 -64 22 -100 40 -36 18 -81 36 -100 40 -19 4 -66
23 -105 41 -70 33 -136 57 -208 75 -21 5 -68 24 -105 43 -37 18 -83 37 -102
41 -19 4 -64 22 -100 40 -36 18 -81 36 -100 40 -19 4 -82 31 -140 60 -58 29
-121 56 -140 60 -19 4 -64 22 -100 40 -36 18 -81 36 -100 40 -19 4 -82 31
-140 60 -58 29 -121 56 -140 60 -19 4 -100 40 -180 80 -80 40 -161 76 -180 80
-46 10 -1542 758 -1600 800 -25 18 -70 45 -100 60 -30 15 -75 42 -100 60 -25
18 -67 44 -95 58 -62 31 -444 285 -491 327 -20 17 -54 42 -77 57 -23 14 -59
41 -79 59 -21 18 -57 45 -80 60 -24 15 -68 50 -98 79 -30 28 -75 64 -100 80
-25 15 -97 78 -160 140 -63 62 -135 125 -160 140 -62 38 -257 231 -282 280
-11 22 -76 96 -143 165 -68 69 -130 140 -140 159 -9 19 -36 55 -59 80 -23 25
-53 64 -65 86 -13 22 -41 60 -63 85 -52 59 -98 128 -147 221 -22 42 -51 89
-64 105 -14 17 -98 175 -186 352 -89 177 -165 322 -169 322 -4 0 -8 17 -9 37
-1 21 -19 71 -40 113 -20 41 -39 85 -40 98 -5 33 -21 72 -30 72 -5 0 -9 15
-10 33 -2 39 -19 87 -32 87 -5 0 -7 16 -4 35 3 26 0 37 -11 41 -19 7 -21 31
-4 36 9 3 7 13 -7 34 -10 16 -18 41 -17 57 2 17 -3 30 -13 33 -18 7 -20 31 -3
36 9 3 7 13 -7 34 -10 16 -18 41 -17 57 2 17 -3 30 -13 33 -18 7 -20 31 -3 36
9 3 8 12 -5 31 -11 17 -17 46 -17 81 0 36 -5 60 -16 70 -8 9 -11 16 -5 16 16
0 13 16 -6 35 -13 13 -16 35 -15 98 0 45 -2 86 -6 91 -3 6 -7 19 -7 30 -1 10
-8 22 -16 26 -12 7 -14 35 -12 149 2 116 0 143 -13 156 -8 8 -11 15 -5 15 17
0 13 17 -7 37 -18 17 -19 53 -20 702 l-1 685 25 25 c24 24 25 26 19 157 -5
132 -5 133 21 161 25 27 26 30 19 125 -5 68 -4 98 4 98 19 0 42 60 38 98 -3
26 3 49 20 79 17 29 23 55 22 85 -1 29 5 55 20 80 16 26 21 48 18 75 -2 24 3
51 14 73 17 33 33 78 64 180 28 89 47 146 66 192 10 26 19 53 19 62 0 8 18 52
40 97 22 46 40 91 40 101 0 10 45 108 100 219 55 110 97 205 94 212 -4 7 -4 9
0 5 20 -18 135 169 120 195 -4 7 -4 9 0 5 20 -18 135 169 120 195 -4 7 -4 9 0
6 8 -8 97 85 115 119 7 12 9 28 5 35 -4 6 -4 9 0 5 9 -7 56 43 75 80 7 12 9
28 5 35 -4 6 -4 9 0 6 8 -8 97 85 115 119 7 12 9 28 5 35 -4 6 -4 9 0 6 8 -7
138 126 155 159 7 12 9 28 5 35 -4 6 -4 9 -1 6 4 -3 172 161 374 364 216 216
391 384 423 404 30 20 78 57 105 83 28 27 75 66 106 87 31 21 79 56 106 78 28
22 63 48 79 57 16 10 52 37 80 60 28 24 64 51 80 61 16 9 54 34 85 55 30 20
78 51 105 69 27 18 67 45 89 61 22 17 69 44 105 62 36 18 78 44 94 57 16 14
79 49 140 80 61 31 124 67 140 80 38 32 510 268 556 278 19 4 82 31 140 60 58
29 121 56 140 60 19 4 64 22 100 40 36 18 81 36 100 40 19 4 67 23 105 41 65
31 100 43 215 79 74 23 143 46 180 60 37 14 106 37 180 60 100 31 146 47 175
60 17 8 57 18 90 24 62 10 138 32 190 56 17 8 55 17 85 20 30 4 64 13 75 20
11 6 47 15 80 19 33 4 69 14 81 21 11 7 59 17 105 20 46 4 91 13 99 20 8 8 53
17 100 20 47 4 92 13 100 20 8 8 53 17 100 20 47 4 92 13 100 20 8 8 53 17
100 20 47 4 92 13 100 20 22 18 84 27 180 26 63 0 89 4 101 15 13 12 49 17
141 21 76 3 129 10 138 18 25 20 97 29 246 30 88 0 146 4 155 11 26 21 113 28
331 29 160 0 220 3 229 13 7 6 27 12 44 12 16 0 37 5 45 10 24 15 1223 13
1238 -2z"/>
<path d="M38530 50793 c-19 -2 -40 -11 -46 -19 -9 -11 -43 -15 -159 -17 -127
-2 -149 -5 -160 -20 -11 -15 -32 -18 -140 -20 -110 -2 -129 -5 -140 -21 -11
-14 -30 -18 -101 -21 -69 -3 -91 -7 -100 -20 -10 -14 -31 -18 -100 -19 -74 -2
-89 -5 -103 -23 -13 -17 -28 -21 -81 -21 -50 -1 -67 -5 -78 -19 -13 -18 -15
-19 -69 -21 -18 -1 -40 -10 -50 -20 -13 -13 -37 -19 -83 -21 -39 -2 -72 -9
-81 -17 -9 -8 -33 -18 -53 -21 -21 -3 -54 -14 -74 -24 -20 -11 -48 -19 -62
-19 -15 0 -35 -8 -46 -17 -10 -10 -37 -19 -59 -21 -22 -2 -68 -19 -102 -37
-34 -19 -79 -37 -100 -41 -21 -3 -85 -30 -142 -60 -57 -29 -120 -57 -140 -60
-44 -8 -277 -123 -317 -157 -16 -13 -79 -49 -140 -80 -61 -31 -124 -67 -140
-80 -16 -13 -61 -40 -100 -60 -39 -20 -84 -47 -100 -60 -16 -13 -44 -32 -63
-42 -19 -9 -55 -36 -80 -60 -25 -23 -61 -50 -80 -60 -19 -9 -55 -36 -80 -60
-25 -23 -62 -50 -81 -60 -19 -10 -64 -46 -100 -80 -36 -35 -81 -70 -100 -80
-48 -23 -715 -688 -747 -745 -15 -25 -63 -83 -108 -130 -45 -47 -90 -101 -100
-120 -10 -19 -38 -57 -62 -84 -25 -28 -52 -64 -60 -80 -9 -17 -36 -53 -60 -80
-25 -28 -53 -66 -64 -85 -19 -36 -59 -95 -120 -179 -17 -24 -42 -69 -57 -100
-14 -31 -40 -75 -58 -98 -19 -22 -46 -67 -60 -100 -15 -32 -42 -77 -59 -99
-42 -52 -435 -840 -435 -871 0 -14 -18 -58 -40 -98 -22 -40 -40 -84 -40 -99 0
-14 -18 -59 -40 -99 -22 -40 -40 -86 -40 -103 0 -16 -9 -45 -20 -63 -11 -18
-20 -45 -20 -60 0 -15 -9 -40 -20 -57 -11 -16 -20 -43 -20 -60 0 -16 -9 -45
-20 -63 -11 -18 -20 -43 -20 -55 0 -12 -9 -39 -20 -60 -11 -20 -20 -49 -20
-64 0 -16 -9 -43 -20 -61 -11 -18 -20 -45 -20 -60 0 -15 -9 -40 -20 -57 -11
-16 -20 -43 -20 -60 0 -16 -10 -46 -21 -65 -14 -22 -22 -53 -23 -86 -1 -30 -9
-62 -20 -79 -13 -19 -20 -49 -20 -86 -1 -40 -7 -64 -20 -78 -12 -14 -19 -38
-20 -74 -1 -33 -9 -64 -20 -82 -13 -19 -20 -49 -20 -86 -1 -40 -7 -64 -19 -77
-14 -15 -19 -40 -21 -101 -2 -63 -6 -85 -21 -101 -15 -17 -19 -37 -20 -100 0
-62 -4 -83 -20 -99 -15 -18 -19 -38 -20 -121 -1 -82 -4 -103 -20 -120 -15 -17
-19 -38 -19 -119 -1 -84 -5 -103 -21 -121 -17 -19 -20 -37 -20 -140 0 -101 -3
-121 -19 -139 -16 -18 -19 -38 -20 -160 -1 -124 -3 -141 -21 -161 -19 -21 -20
-36 -20 -220 0 -183 -1 -200 -20 -220 -18 -20 -20 -37 -20 -300 0 -254 -2
-280 -18 -298 -17 -19 -18 -61 -18 -838 0 -776 1 -819 18 -832 17 -12 18 -35
19 -279 1 -250 2 -267 20 -280 17 -13 19 -28 20 -180 0 -148 2 -167 18 -179
16 -11 19 -30 20 -140 1 -111 4 -128 20 -140 17 -12 19 -28 21 -140 0 -104 4
-128 17 -138 12 -9 17 -34 21 -101 3 -64 9 -91 20 -100 11 -8 16 -35 20 -100
3 -64 9 -91 20 -100 11 -8 16 -35 20 -100 3 -66 8 -91 21 -100 10 -8 16 -27
16 -51 0 -46 17 -114 29 -114 4 0 11 -30 14 -66 4 -37 13 -76 20 -88 8 -12 18
-41 22 -64 4 -23 12 -48 19 -55 7 -7 16 -41 19 -76 4 -36 13 -74 21 -85 7 -12
16 -39 20 -61 4 -22 13 -49 20 -60 7 -11 16 -38 20 -60 4 -22 13 -49 20 -60 7
-11 16 -38 20 -60 4 -22 13 -49 20 -60 7 -11 16 -38 20 -60 4 -22 13 -49 20
-60 7 -11 16 -37 20 -59 4 -21 22 -67 41 -102 18 -35 36 -81 40 -101 4 -20 21
-64 39 -97 18 -34 36 -79 40 -100 9 -47 396 -826 436 -876 15 -19 42 -64 60
-100 18 -36 45 -81 60 -100 15 -19 35 -48 44 -65 9 -16 32 -52 51 -80 19 -27
48 -70 65 -95 17 -25 46 -67 65 -95 19 -27 44 -67 55 -87 11 -21 40 -58 64
-83 24 -25 54 -65 66 -90 12 -25 46 -65 75 -90 31 -27 62 -65 75 -93 15 -32
67 -90 165 -187 97 -95 149 -153 160 -180 20 -50 231 -260 282 -282 21 -8 86
-65 152 -132 67 -67 140 -130 171 -148 30 -17 82 -59 114 -92 33 -33 69 -64
80 -67 12 -4 37 -19 56 -34 19 -15 49 -34 65 -43 17 -8 53 -36 80 -62 28 -25
81 -61 118 -80 37 -18 82 -44 100 -58 18 -13 61 -39 97 -58 36 -18 88 -49 115
-70 59 -43 505 -264 553 -274 19 -4 64 -22 100 -40 37 -18 82 -36 101 -40 19
-4 64 -23 100 -42 39 -20 83 -35 107 -36 23 -1 40 -5 38 -8 -7 -11 43 -31 84
-32 22 -1 38 -5 36 -8 -6 -11 41 -30 76 -29 69 0 90 -2 85 -10 -7 -12 38 -31
75 -30 71 0 90 -2 85 -11 -10 -14 37 -31 71 -26 19 3 36 1 40 -4 3 -6 17 -8
31 -4 15 3 22 2 19 -4 -12 -19 35 -33 86 -27 54 7 121 -1 113 -15 -12 -18 38
-31 96 -24 43 5 59 4 59 -5 0 -8 9 -10 26 -6 17 5 23 3 19 -4 -15 -24 44 -34
145 -24 106 10 156 3 176 -24 11 -15 39 -17 246 -17 128 0 239 -2 247 -5 8 -3
22 -12 31 -21 14 -13 56 -15 302 -14 189 0 290 4 299 11 26 21 105 28 325 28
149 1 225 5 235 12 21 18 83 25 199 25 78 0 109 4 121 15 11 10 50 17 120 21
62 3 110 11 119 18 8 8 53 17 100 20 47 4 92 13 100 20 8 7 42 16 75 20 33 4
69 12 80 18 11 7 49 17 85 23 67 13 143 35 195 59 17 7 53 16 80 20 28 3 66
12 85 19 42 17 118 42 180 60 25 7 72 27 105 43 33 17 76 34 95 38 19 4 64 22
100 40 36 18 81 36 100 40 45 10 606 290 644 322 16 13 63 42 105 64 42 21 99
55 126 74 28 19 70 49 95 65 25 17 68 46 95 65 28 19 64 42 80 51 17 9 52 37
79 61 28 25 64 51 80 60 17 9 61 44 98 79 37 35 82 71 100 80 39 19 883 856
904 897 8 15 12 33 8 40 -4 7 -4 9 0 6 8 -7 138 126 155 159 7 12 9 28 5 35
-4 6 -4 9 0 5 8 -7 97 86 116 122 6 11 8 26 4 33 -4 6 -4 9 0 5 9 -7 56 43 75
80 7 12 9 28 5 35 -4 6 -4 9 0 6 8 -8 97 85 115 119 7 12 9 28 5 35 -4 6 -4 9
0 5 20 -18 135 169 120 195 -4 7 -4 9 1 5 19 -17 133 170 119 195 -4 7 -4 9 0
5 4 -4 20 8 36 25 33 38 330 629 330 657 0 10 27 74 60 141 33 67 60 130 60
141 0 10 16 50 35 88 19 38 39 86 44 107 11 43 36 121 56 173 19 51 45 129 57
175 6 22 19 58 29 81 11 22 19 60 19 85 0 24 7 52 15 62 7 11 16 36 20 57 4
22 15 56 26 77 10 20 19 56 19 80 0 25 9 56 21 78 16 26 20 45 16 72 -5 28 0
46 20 80 23 40 25 50 19 113 -5 46 -4 70 3 70 25 0 43 63 38 132 -3 37 -1 68
3 68 5 0 17 14 25 31 13 24 15 49 11 120 -4 55 -2 89 4 89 5 0 16 14 25 30 13
25 14 50 9 135 l-7 105 27 25 28 26 -7 154 -8 155 25 25 25 24 -5 334 c-4 329
-3 334 18 358 l21 24 0 1939 c0 1066 -2 1941 -5 1943 -2 3 -2 12 1 20 4 9 -2
22 -13 30 -18 13 -19 30 -20 256 -2 264 -4 296 -26 308 -11 6 -14 33 -12 129
1 94 -2 124 -13 136 -8 8 -10 14 -4 14 16 0 13 16 -6 35 -13 13 -16 35 -15
101 0 46 -3 86 -8 89 -5 3 -7 12 -4 20 3 7 -3 22 -13 32 -14 14 -17 30 -15 74
2 41 -1 61 -12 72 -12 11 -13 16 -4 19 9 3 8 12 -5 32 -10 15 -20 52 -22 83
-2 30 -11 66 -20 80 -9 13 -18 49 -20 80 -2 30 -12 67 -21 80 -9 14 -18 39
-21 56 -6 40 -21 77 -30 77 -5 0 -9 27 -9 60 -1 38 -8 69 -19 86 -9 14 -18 40
-21 57 -2 18 -20 66 -41 107 -20 41 -39 85 -40 98 -5 33 -21 72 -30 72 -5 0
-8 16 -9 35 0 22 -23 80 -59 153 -33 64 -60 128 -62 142 -5 36 -192 416 -230
467 -18 23 -56 89 -84 145 -28 57 -64 121 -81 143 -31 42 -75 109 -121 184
-16 25 -37 55 -47 66 -10 11 -25 35 -35 54 -9 19 -36 55 -60 80 -23 25 -50 61
-60 80 -9 19 -36 55 -60 80 -23 25 -50 62 -60 81 -10 19 -46 64 -80 100 -34
36 -73 85 -88 110 -31 55 -778 801 -826 825 -18 9 -76 57 -128 106 -52 49 -99
89 -103 89 -5 0 -35 21 -67 47 -75 61 -442 307 -507 340 -28 14 -71 40 -96 58
-58 42 -594 310 -640 320 -19 4 -62 21 -95 38 -33 16 -80 36 -105 43 -46 12
-75 22 -165 54 -59 21 -132 45 -195 65 -82 25 -145 46 -178 61 -18 8 -52 14
-75 14 -23 0 -59 9 -80 20 -20 11 -56 20 -80 20 -24 0 -59 9 -82 22 -28 15
-61 22 -111 24 -50 1 -81 8 -100 21 -22 14 -49 18 -119 19 -71 1 -97 5 -120
20 -24 16 -50 19 -160 21 -110 1 -136 5 -170 22 -39 21 -50 21 -750 19 -390 0
-726 -3 -745 -5z"/>
<path d="M60410 50793 c-19 -2 -40 -11 -46 -19 -9 -12 -40 -15 -139 -17 -110
-2 -129 -5 -140 -21 -11 -14 -30 -18 -101 -20 -73 -3 -89 -6 -103 -23 -13 -17
-28 -21 -81 -21 -54 -1 -67 -4 -79 -21 -11 -18 -24 -21 -82 -21 -53 0 -70 -4
-77 -17 -6 -10 -26 -18 -49 -20 -22 -2 -58 -13 -79 -23 -21 -11 -49 -20 -63
-20 -13 0 -53 -15 -87 -34 -34 -19 -80 -38 -101 -41 -21 -4 -66 -22 -100 -40
-34 -19 -79 -37 -100 -41 -46 -8 -278 -122 -319 -157 -16 -13 -76 -48 -134
-77 -58 -29 -123 -65 -145 -82 -43 -31 -110 -76 -184 -121 -25 -16 -64 -46
-86 -67 -22 -21 -56 -46 -75 -55 -19 -10 -73 -55 -120 -100 -47 -45 -105 -93
-130 -108 -56 -32 -561 -539 -585 -587 -10 -19 -55 -74 -100 -121 -46 -48 -91
-102 -100 -120 -10 -19 -34 -52 -55 -74 -21 -22 -51 -61 -67 -87 -61 -101 -90
-142 -137 -196 -27 -30 -63 -85 -80 -121 -17 -37 -46 -87 -64 -111 -81 -111
-108 -156 -194 -330 -50 -102 -106 -202 -125 -223 -21 -23 -33 -47 -33 -66 0
-16 -42 -111 -100 -224 -55 -107 -100 -207 -100 -221 0 -15 -18 -60 -40 -100
-22 -40 -40 -84 -40 -97 0 -13 -9 -41 -20 -62 -11 -20 -20 -49 -20 -64 0 -16
-9 -43 -20 -61 -11 -18 -20 -45 -20 -60 0 -15 -9 -42 -20 -60 -11 -18 -20 -45
-20 -60 0 -15 -9 -42 -20 -60 -11 -18 -20 -45 -20 -60 0 -15 -10 -43 -21 -62
-14 -22 -22 -53 -23 -86 -1 -29 -9 -62 -19 -77 -9 -14 -17 -39 -17 -54 0 -15
-10 -44 -22 -63 -14 -24 -21 -53 -22 -92 -1 -39 -7 -63 -19 -76 -14 -15 -19
-40 -21 -101 -2 -60 -6 -85 -20 -100 -13 -15 -18 -39 -20 -100 -2 -61 -7 -85
-20 -100 -13 -15 -18 -39 -20 -100 -2 -61 -6 -85 -20 -100 -15 -16 -18 -40
-20 -120 -2 -83 -5 -104 -21 -121 -18 -20 -20 -37 -20 -160 0 -123 -2 -140
-19 -159 -18 -20 -20 -38 -20 -200 -1 -164 -3 -181 -21 -201 -20 -22 -20 -36
-20 -6746 l0 -6724 5433 0 c4339 0 5432 3 5432 13 2 475 -2 13612 -4 13631 -2
16 -11 33 -20 38 -14 8 -15 40 -12 289 3 234 1 283 -11 295 -8 8 -10 14 -4 14
17 0 13 18 -7 36 -16 14 -18 31 -15 179 2 96 -1 166 -7 170 -5 3 -7 12 -4 19
3 7 -2 21 -11 29 -12 13 -16 43 -19 139 -3 139 -9 177 -25 187 -6 4 -12 45
-15 95 -2 61 -8 91 -17 97 -10 6 -11 9 -1 9 17 0 15 15 -4 35 -12 11 -17 38
-19 98 -3 104 -9 138 -26 151 -10 8 -13 29 -11 67 2 41 -1 61 -12 72 -12 11
-13 16 -4 19 9 3 8 12 -5 32 -10 15 -20 52 -22 82 -2 30 -13 70 -23 87 -11 18
-17 38 -15 45 3 7 2 25 -2 39 -5 21 -8 24 -16 12 -7 -12 -9 -11 -9 3 0 9 6 18
12 20 9 3 8 12 -5 32 -10 15 -20 53 -23 84 -3 31 -12 67 -20 81 -9 13 -18 37
-21 54 -6 40 -21 77 -30 77 -5 0 -9 27 -9 60 -1 34 -8 69 -16 82 -8 13 -21 47
-28 76 -7 30 -17 55 -24 58 -6 2 -11 20 -12 39 0 19 -18 70 -39 112 -22 43
-41 89 -43 103 -4 32 -58 150 -69 150 -4 0 -9 17 -10 38 -2 42 -226 503 -273
562 -15 20 -42 65 -60 100 -18 36 -45 83 -62 105 -31 43 -75 109 -121 184 -16
25 -37 55 -47 66 -10 11 -26 36 -35 55 -10 19 -46 64 -80 100 -34 36 -73 85
-88 110 -32 56 -446 468 -507 505 -25 15 -67 49 -95 75 -27 27 -142 110 -255
185 -163 110 -260 165 -475 273 -148 74 -290 141 -315 148 -52 15 -130 40
-180 58 -60 22 -133 46 -180 60 -50 15 -90 29 -165 57 -28 11 -68 19 -90 19
-22 0 -58 10 -80 22 -28 15 -61 22 -112 24 -49 2 -81 9 -100 21 -21 14 -48 18
-118 19 -71 1 -97 5 -120 20 -24 15 -50 19 -140 21 -89 1 -117 5 -150 22 -39
21 -50 21 -670 19 -346 0 -646 -3 -665 -5z"/>
<path d="M75205 50793 c-16 -2 -35 -11 -41 -19 -9 -12 -40 -16 -139 -17 -110
-2 -129 -5 -140 -21 -11 -14 -30 -18 -101 -21 -72 -3 -90 -7 -103 -22 -13 -16
-30 -20 -81 -21 -49 -1 -68 -5 -77 -18 -7 -10 -30 -19 -54 -21 -23 -3 -58 -13
-78 -24 -19 -10 -47 -19 -61 -19 -14 0 -35 -7 -47 -15 -11 -8 -39 -17 -61 -21
-22 -3 -49 -14 -59 -23 -10 -9 -36 -17 -58 -19 -22 -2 -68 -19 -102 -37 -34
-19 -79 -37 -100 -41 -46 -8 -357 -162 -399 -197 -16 -13 -61 -40 -100 -60
-39 -20 -84 -47 -100 -60 -16 -13 -62 -41 -103 -61 -40 -21 -94 -57 -120 -80
-25 -24 -61 -51 -80 -61 -19 -9 -55 -36 -80 -60 -25 -23 -62 -50 -81 -60 -19
-10 -73 -55 -120 -100 -47 -45 -105 -93 -130 -108 -56 -31 -521 -499 -545
-547 -10 -19 -55 -74 -100 -121 -46 -48 -91 -102 -100 -120 -10 -19 -45 -63
-80 -99 -34 -36 -70 -81 -80 -100 -10 -19 -38 -57 -63 -85 -24 -27 -50 -61
-55 -75 -6 -14 -26 -43 -43 -65 -17 -22 -39 -53 -48 -70 -9 -16 -32 -52 -51
-80 -19 -27 -48 -70 -65 -95 -17 -25 -46 -67 -65 -95 -20 -27 -50 -79 -67
-115 -17 -36 -46 -83 -64 -105 -42 -53 -474 -919 -474 -951 0 -14 -18 -58 -40
-98 -22 -40 -40 -86 -40 -102 0 -16 -9 -44 -20 -62 -11 -18 -20 -43 -20 -55 0
-12 -9 -39 -20 -60 -11 -20 -20 -47 -20 -60 0 -12 -9 -39 -20 -60 -11 -20 -20
-49 -20 -64 0 -16 -9 -43 -20 -61 -11 -18 -20 -45 -20 -60 0 -15 -9 -40 -20
-57 -11 -16 -20 -43 -20 -60 0 -16 -10 -46 -21 -65 -14 -22 -22 -53 -23 -86
-1 -31 -9 -62 -20 -80 -13 -18 -20 -49 -21 -86 -1 -40 -7 -64 -20 -78 -12 -13
-18 -37 -19 -79 -1 -44 -6 -65 -21 -81 -16 -18 -20 -37 -20 -100 -1 -61 -5
-84 -19 -99 -13 -15 -18 -39 -20 -100 -2 -63 -6 -85 -22 -102 -16 -18 -19 -36
-19 -139 0 -102 -3 -121 -19 -139 -17 -18 -20 -38 -20 -140 -1 -104 -4 -122
-21 -141 -18 -20 -20 -37 -20 -240 0 -194 -2 -220 -18 -237 -17 -19 -17 -321
-20 -6587 l-2 -6566 5431 0 5432 0 4 23 c4 20 2 13642 -2 13642 -1 0 -3 11 -4
23 -2 13 -9 28 -17 33 -11 7 -14 57 -15 271 -1 282 -4 316 -25 329 -11 6 -14
45 -15 171 -1 180 -5 216 -25 232 -10 8 -14 43 -15 131 -2 140 -7 175 -25 189
-11 8 -13 35 -11 105 1 52 0 102 -4 110 -4 9 -8 25 -9 35 -1 10 -8 24 -16 30
-10 8 -14 35 -15 91 -1 98 -7 135 -25 149 -10 8 -13 29 -11 67 2 41 -1 61 -12
72 -12 11 -13 16 -4 19 9 3 8 12 -5 31 -11 17 -17 46 -17 81 0 35 -5 60 -15
69 -11 11 -12 16 -3 19 9 3 7 13 -7 34 -10 16 -18 41 -17 57 2 17 -3 30 -13
33 -18 7 -20 31 -3 36 9 3 7 13 -7 34 -10 16 -18 41 -17 57 2 17 -3 30 -13 33
-18 7 -20 31 -3 36 8 3 6 15 -9 39 -11 19 -18 40 -16 47 3 7 2 25 -2 39 -5 21
-8 24 -16 12 -7 -12 -9 -11 -9 3 0 9 6 18 12 20 9 3 8 12 -5 32 -10 15 -20 52
-22 83 -2 30 -10 65 -18 77 -8 11 -19 43 -26 71 -7 27 -16 54 -20 60 -5 5 -14
34 -21 63 -7 30 -18 56 -25 58 -7 3 -12 13 -11 22 4 24 -13 85 -27 97 -7 6
-13 25 -14 44 0 18 -18 68 -39 110 -21 42 -39 87 -41 101 -4 33 -356 743 -395
795 -31 43 -75 110 -121 184 -16 25 -46 64 -66 86 -21 22 -49 60 -64 85 -26
47 -556 580 -575 580 -6 0 -36 20 -65 44 -79 64 -206 150 -268 181 -30 15 -74
42 -99 60 -58 42 -434 230 -480 240 -19 4 -66 23 -105 41 -65 30 -98 43 -215
79 -82 25 -145 46 -178 61 -18 8 -52 14 -75 14 -23 0 -59 9 -80 20 -20 11 -56
20 -80 20 -24 0 -59 9 -82 22 -28 15 -61 22 -111 24 -50 1 -81 8 -100 21 -22
14 -49 18 -119 19 -71 1 -97 5 -120 20 -24 16 -50 19 -160 21 -110 1 -136 5
-170 22 -38 21 -51 21 -655 20 -338 -1 -628 -4 -645 -6z"/>
<path d="M45750 33998 c-16 -22 -30 -44 -30 -48 0 -4 -14 -25 -31 -46 -18 -22
-45 -68 -62 -104 -17 -36 -48 -87 -69 -113 -21 -27 -38 -53 -38 -58 0 -5 -17
-32 -37 -59 -38 -48 -79 -110 -118 -174 -11 -18 -39 -54 -62 -79 -23 -24 -49
-60 -59 -78 -9 -19 -37 -56 -61 -83 -25 -28 -51 -64 -60 -80 -9 -17 -35 -52
-58 -77 -24 -25 -51 -61 -60 -80 -10 -19 -46 -64 -81 -101 -35 -37 -71 -82
-80 -100 -9 -18 -71 -89 -139 -158 -67 -69 -130 -141 -140 -160 -24 -48 -550
-576 -600 -602 -22 -11 -87 -67 -145 -123 -58 -57 -121 -111 -140 -120 -19
-10 -64 -46 -100 -80 -36 -35 -80 -70 -99 -80 -19 -9 -55 -36 -80 -60 -25 -23
-61 -50 -80 -60 -19 -9 -55 -36 -80 -59 -25 -23 -66 -55 -91 -70 -43 -26 -59
-36 -160 -106 -25 -17 -67 -44 -93 -61 -27 -16 -47 -35 -44 -42 6 -18 2927
-23 2939 -5 4 7 5 57 1 110 -6 91 -5 99 16 120 l22 23 0 1410 c0 776 0 1418 0
1428 -1 11 -9 17 -26 17 -18 0 -34 -12 -55 -42z"/>
<path d="M53445 28299 c-33 -15 -64 -19 -176 -19 -115 0 -144 -3 -180 -20 -27
-12 -66 -20 -101 -20 -34 0 -75 -8 -103 -20 -26 -11 -59 -20 -73 -20 -87 0
-532 -203 -637 -291 -27 -23 -75 -59 -105 -79 -83 -58 -149 -131 -247 -280
-114 -171 -114 -172 -173 -350 l-50 -150 0 -295 c0 -265 2 -300 19 -347 11
-29 22 -74 26 -99 7 -53 111 -265 156 -319 16 -19 51 -66 78 -105 55 -79 172
-195 246 -245 28 -18 61 -43 75 -56 55 -50 337 -227 452 -285 68 -34 148 -79
178 -99 31 -21 219 -120 419 -220 360 -180 521 -274 671 -395 36 -29 76 -58
89 -65 73 -38 193 -194 275 -357 l36 -73 0 -230 0 -231 -70 -138 c-62 -123
-78 -147 -143 -208 -59 -56 -97 -81 -192 -128 -153 -75 -267 -115 -327 -115
-26 0 -70 -9 -98 -20 -47 -18 -74 -20 -328 -20 -248 1 -283 3 -332 20 -32 11
-82 19 -120 20 -39 0 -89 8 -123 20 -31 11 -65 20 -75 20 -22 0 -281 87 -387
130 -44 18 -108 44 -142 57 -74 30 -248 141 -321 207 -36 31 -61 46 -75 44
l-22 -3 -3 -399 c-2 -345 0 -402 13 -423 42 -64 453 -214 670 -244 39 -6 84
-15 100 -21 56 -19 110 -27 188 -28 55 0 88 -5 110 -17 29 -16 72 -18 398 -21
323 -3 371 -1 410 14 24 9 87 20 139 24 56 4 108 14 127 23 18 10 55 17 83 17
123 0 599 199 715 300 26 22 70 56 98 74 60 38 89 69 142 146 21 30 53 72 71
92 77 86 214 409 214 503 0 22 9 66 20 98 17 49 20 82 20 257 0 168 -3 206
-17 233 -9 18 -19 67 -23 110 -6 71 -14 92 -83 230 -42 84 -100 188 -128 232
-106 164 -344 375 -639 567 -214 139 -284 178 -685 379 -220 111 -434 223
-475 249 -41 26 -97 60 -125 75 -122 69 -227 151 -336 262 -122 126 -156 178
-212 326 -27 73 -31 97 -34 210 -4 121 -3 133 26 219 54 158 101 235 206 337
79 76 109 98 205 146 116 58 254 108 329 119 24 4 56 13 72 21 23 13 94 15
419 15 242 0 398 -4 410 -10 10 -6 47 -16 82 -24 65 -14 150 -35 253 -62 33
-9 158 -64 277 -122 120 -58 221 -102 225 -98 4 4 9 180 11 391 l3 384 -38 19
c-45 23 -225 82 -251 82 -9 0 -46 9 -80 20 -35 11 -83 20 -105 20 -23 0 -66 9
-95 20 -45 17 -76 20 -240 20 -163 0 -194 3 -240 20 -74 28 -287 28 -347 -1z"/>
<path d="M60805 28299 c-34 -16 -64 -19 -196 -19 -135 0 -163 -3 -200 -20 -27
-12 -66 -20 -101 -20 -32 0 -75 -8 -100 -19 -24 -10 -72 -22 -106 -26 -34 -4
-62 -11 -62 -15 0 -5 -19 -13 -42 -18 -90 -22 -337 -111 -417 -151 -46 -24
-113 -62 -150 -85 -36 -24 -98 -63 -137 -87 -141 -87 -212 -147 -447 -379
-221 -218 -246 -246 -337 -382 -134 -198 -314 -557 -381 -759 -27 -82 -49
-159 -49 -172 0 -12 -9 -48 -20 -80 -13 -36 -20 -82 -20 -127 0 -48 -6 -81
-17 -103 -14 -25 -19 -69 -24 -207 -4 -127 -10 -186 -22 -215 -12 -30 -16 -74
-16 -180 -1 -118 2 -147 19 -184 17 -37 20 -65 20 -198 0 -129 3 -162 19 -201
11 -26 22 -77 25 -114 4 -36 13 -82 21 -102 8 -19 15 -47 15 -61 0 -14 9 -51
20 -82 11 -32 20 -67 20 -78 0 -47 62 -209 146 -380 95 -194 270 -469 344
-540 23 -22 57 -65 75 -96 38 -62 128 -152 195 -194 24 -15 67 -49 95 -75 67
-64 331 -238 452 -298 101 -51 512 -192 558 -192 14 0 40 -7 56 -16 18 -9 69
-18 122 -21 56 -3 104 -12 122 -22 26 -14 85 -16 436 -19 361 -3 411 -1 450
14 25 10 92 20 159 24 70 4 130 14 152 24 21 9 55 16 75 16 21 0 63 7 93 16
30 8 76 19 101 24 63 12 430 135 487 164 26 13 72 31 102 40 89 27 313 147
327 176 10 20 12 307 10 1320 l-2 1295 -975 0 -975 0 -3 -309 c-2 -241 1 -311
10 -318 7 -4 286 -8 621 -8 l607 0 0 -795 0 -795 -37 -15 c-21 -9 -67 -26
-103 -37 -36 -11 -83 -30 -105 -41 -58 -29 -196 -77 -223 -77 -12 0 -48 -9
-79 -20 -37 -13 -83 -20 -129 -20 -50 0 -85 -6 -115 -20 -41 -18 -66 -20 -344
-19 -271 0 -305 2 -355 19 -31 11 -82 19 -118 20 -51 0 -103 14 -275 71 -117
40 -233 82 -258 95 -25 12 -114 68 -199 124 -169 113 -340 267 -413 375 -23
33 -60 83 -83 112 -63 78 -214 388 -273 562 -28 82 -51 159 -51 170 0 12 -9
47 -20 78 -15 42 -20 83 -20 151 0 73 -4 101 -20 132 -19 37 -20 59 -20 382 0
318 1 348 20 401 12 34 20 82 20 120 0 38 8 88 20 122 11 32 20 67 20 77 0 11
22 86 50 168 63 190 165 393 290 579 85 126 120 168 261 307 90 89 178 168
195 177 18 9 78 49 135 88 185 128 477 251 641 270 43 4 91 15 107 24 44 22
877 23 921 0 16 -8 61 -18 102 -21 40 -4 81 -11 90 -15 9 -5 45 -15 80 -23
268 -59 334 -84 617 -226 143 -71 262 -130 265 -130 3 0 6 170 6 379 0 364 -1
379 -20 404 -11 14 -37 31 -58 37 -20 6 -77 29 -127 50 -88 38 -151 57 -325
100 -47 12 -115 30 -151 41 -36 10 -94 19 -130 19 -40 0 -84 8 -117 20 -45 17
-76 20 -240 20 -163 0 -194 3 -240 20 -74 28 -287 28 -347 -1z"/>
<path d="M56162 25323 l3 -2878 347 -3 c335 -2 348 -2 358 17 7 14 9 907 8
2878 l-3 2858 -358 3 -357 2 2 -2877z"/>
<path d="M65480 28173 c-21 -19 -33 -41 -37 -68 -3 -22 -20 -69 -38 -105 -17
-36 -47 -112 -65 -170 -18 -58 -45 -130 -60 -160 -15 -30 -42 -102 -60 -160
-18 -58 -45 -130 -60 -160 -16 -31 -33 -76 -40 -100 -7 -24 -24 -69 -39 -100
-15 -30 -43 -102 -61 -160 -18 -58 -44 -127 -57 -154 -14 -27 -32 -72 -40
-100 -8 -28 -28 -76 -43 -106 -15 -30 -42 -102 -60 -160 -18 -58 -45 -130 -60
-160 -16 -31 -33 -76 -40 -100 -7 -24 -24 -69 -39 -100 -15 -30 -43 -102 -61
-160 -18 -58 -45 -130 -60 -160 -16 -31 -33 -76 -40 -100 -7 -24 -24 -69 -39
-100 -15 -30 -43 -102 -61 -160 -18 -58 -45 -130 -60 -160 -16 -31 -33 -76
-40 -100 -7 -24 -24 -69 -39 -100 -15 -30 -43 -102 -61 -160 -18 -58 -45 -130
-60 -160 -16 -31 -33 -76 -40 -100 -7 -24 -24 -69 -39 -100 -15 -30 -43 -102
-61 -160 -18 -58 -45 -130 -60 -160 -15 -30 -42 -102 -60 -160 -18 -58 -45
-130 -60 -160 -16 -31 -33 -76 -40 -100 -7 -24 -24 -69 -39 -100 -15 -30 -43
-102 -61 -160 -18 -58 -45 -130 -60 -160 -16 -31 -33 -76 -40 -100 -7 -24 -24
-69 -39 -100 -15 -30 -43 -102 -61 -159 -18 -58 -48 -137 -66 -175 -19 -39
-34 -77 -34 -85 0 -8 -15 -49 -34 -91 -46 -104 -77 -181 -83 -207 -4 -18 0
-23 28 -28 19 -3 194 -4 389 -3 l354 3 23 40 c12 22 39 92 59 155 21 63 47
136 60 161 13 25 68 182 124 348 55 166 109 320 120 340 10 21 54 144 96 272
42 129 86 244 97 257 l20 22 1188 0 1187 0 37 -77 c21 -43 54 -130 75 -194 21
-64 47 -134 59 -157 12 -23 39 -96 61 -162 22 -66 50 -141 64 -167 13 -26 40
-98 59 -159 19 -60 46 -132 60 -160 14 -27 41 -99 60 -160 19 -60 46 -132 60
-160 13 -27 32 -75 41 -106 27 -96 13 -93 419 -96 256 -2 353 0 363 9 26 21
17 94 -22 177 -20 42 -43 100 -51 127 -8 28 -25 70 -38 95 -12 25 -41 99 -63
165 -22 66 -52 143 -66 171 -14 29 -26 57 -26 64 0 7 -18 54 -39 104 -22 50
-53 132 -69 182 -17 49 -44 121 -61 158 -17 38 -31 73 -31 79 0 5 -18 49 -40
98 -22 49 -40 95 -40 102 0 6 -13 40 -30 75 -16 35 -47 116 -69 180 -21 64
-53 148 -70 186 -17 38 -31 74 -31 80 0 6 -14 40 -30 75 -17 34 -50 122 -74
195 -24 72 -55 156 -69 186 -43 95 -88 211 -132 340 -23 69 -54 150 -68 180
-41 91 -87 209 -127 325 -21 61 -51 139 -67 175 -17 36 -33 77 -37 92 -3 15
-19 56 -36 91 -16 35 -41 102 -56 148 -14 46 -43 125 -63 174 -84 200 -105
255 -146 375 -23 69 -54 150 -68 180 -41 92 -88 209 -127 325 -21 61 -51 139
-67 175 -16 36 -33 77 -36 92 -4 15 -20 55 -36 90 -16 35 -45 110 -64 168 -19
58 -45 125 -57 150 -13 25 -31 72 -40 105 l-16 60 -356 3 -357 2 -31 -27z
m364 -868 c8 -9 18 -32 22 -53 12 -72 59 -214 94 -281 11 -23 38 -95 60 -161
22 -66 50 -141 63 -167 14 -26 50 -125 80 -220 31 -94 65 -190 77 -212 11 -23
38 -95 60 -161 22 -66 49 -139 61 -162 12 -23 47 -121 79 -217 32 -97 72 -205
88 -241 16 -36 43 -108 60 -160 16 -53 39 -115 51 -139 12 -23 51 -127 85
-229 35 -103 66 -195 70 -204 8 -17 -41 -18 -953 -18 l-961 0 0 25 c0 14 14
53 31 86 17 34 57 141 89 239 32 98 69 197 80 221 12 23 39 95 60 159 21 64
47 135 58 156 11 22 48 122 81 222 34 101 70 201 82 223 11 22 47 121 79 219
32 98 68 196 79 217 10 22 47 121 80 222 34 100 69 197 78 214 15 29 84 219
119 326 7 24 11 48 8 53 -8 13 4 58 15 58 5 0 16 -7 25 -15z"/>
<path d="M69200 25326 c0 -2611 1 -2874 16 -2880 9 -3 165 -6 348 -6 245 0
335 3 344 12 9 9 12 487 12 2090 0 2065 0 2078 -20 2129 -19 47 -20 70 -18
270 2 137 7 219 13 220 5 0 13 -16 17 -36 8 -37 38 -127 82 -248 13 -37 47
-114 75 -170 28 -57 51 -110 51 -119 0 -8 31 -79 70 -157 38 -77 78 -167 88
-198 11 -32 56 -130 100 -219 44 -88 89 -187 100 -220 11 -32 47 -114 80 -180
34 -67 70 -150 82 -184 12 -34 49 -119 84 -189 35 -69 73 -156 84 -193 12 -36
46 -113 76 -170 30 -57 64 -132 76 -168 12 -36 57 -135 100 -221 43 -86 88
-185 100 -220 11 -35 47 -116 80 -179 32 -64 67 -144 78 -178 12 -34 52 -126
91 -204 39 -79 71 -151 71 -160 0 -8 33 -83 74 -166 41 -83 81 -172 89 -199 8
-26 45 -108 81 -182 37 -74 73 -158 82 -187 14 -48 153 -333 176 -361 8 -9 52
-13 160 -13 144 0 150 1 173 24 29 29 136 240 163 322 11 32 47 113 80 180 33
66 69 147 80 180 11 32 47 113 80 180 33 66 69 147 80 180 11 32 49 118 85
190 36 71 70 150 77 174 7 24 40 101 75 170 35 70 72 153 83 186 11 32 47 113
80 180 33 66 69 147 80 180 11 32 47 113 80 180 33 66 69 147 80 180 11 32 49
118 85 190 36 71 70 150 77 174 7 24 40 101 75 170 35 70 72 153 83 186 11 32
47 113 80 180 33 66 69 147 80 180 11 32 47 113 80 180 33 66 69 147 80 180
11 32 52 124 91 203 39 79 71 150 71 158 0 9 20 58 45 109 25 52 47 107 48
123 1 16 5 27 10 24 4 -2 7 6 7 19 0 40 20 98 35 98 11 0 13 -54 14 -299 2
-278 0 -302 -19 -350 -20 -52 -20 -61 -18 -2039 l3 -1987 352 -3 353 -2 5 22
c3 13 4 1308 3 2878 l-3 2855 -422 3 -421 2 -30 -25 c-22 -18 -34 -40 -41 -75
-6 -27 -51 -130 -100 -228 -49 -98 -95 -198 -101 -222 -6 -24 -51 -123 -100
-220 -49 -97 -94 -196 -100 -220 -7 -24 -41 -103 -77 -174 -36 -72 -72 -153
-80 -180 -8 -28 -55 -129 -103 -226 -49 -97 -94 -196 -100 -220 -7 -24 -43
-105 -80 -180 -37 -75 -73 -156 -80 -180 -6 -24 -51 -123 -100 -220 -49 -97
-94 -196 -100 -220 -6 -24 -51 -123 -100 -220 -49 -97 -94 -196 -100 -220 -7
-24 -43 -105 -80 -180 -37 -75 -73 -156 -80 -180 -6 -24 -51 -123 -100 -220
-49 -97 -94 -196 -100 -220 -7 -24 -34 -87 -60 -140 -26 -53 -53 -116 -60
-140 -7 -25 -25 -69 -40 -100 -15 -31 -33 -76 -40 -100 -7 -24 -25 -69 -40
-100 -15 -31 -33 -74 -39 -96 -6 -22 -22 -55 -36 -74 -25 -33 -26 -34 -31 -12
-4 12 -10 22 -15 22 -5 0 -6 7 -3 15 7 16 -47 177 -83 249 -14 27 -32 72 -40
100 -8 28 -32 83 -53 121 -21 39 -50 105 -64 148 -15 43 -51 124 -80 180 -30
56 -66 138 -81 182 -15 44 -51 126 -81 183 -29 56 -65 137 -79 180 -15 42 -42
106 -61 141 -19 35 -45 97 -59 137 -13 41 -48 121 -79 178 -30 57 -62 128 -72
157 -9 30 -49 122 -89 204 -40 83 -75 163 -79 178 -4 15 -31 78 -60 140 -29
62 -56 126 -60 142 -4 17 -38 93 -76 170 -38 77 -78 169 -90 204 -12 35 -46
111 -76 169 -30 58 -63 131 -73 162 -11 32 -39 99 -64 151 -25 52 -55 123 -67
158 -12 36 -48 117 -81 180 -33 64 -64 134 -70 156 -6 22 -41 103 -79 180 -38
77 -78 169 -90 204 -12 35 -37 95 -56 132 l-34 69 -470 0 -470 0 0 -2874z"/>
<path d="M76560 25326 c0 -2611 1 -2874 16 -2880 9 -3 688 -6 1509 -6 1474 0
1494 0 1505 20 7 12 9 123 8 317 l-3 298 -1177 3 -1178 2 0 980 0 980 1030 0
c1012 0 1029 0 1040 20 7 12 9 123 8 317 l-3 298 -1037 3 -1038 2 0 940 0 940
1109 0 c927 0 1110 2 1120 14 8 9 11 101 9 317 l-3 304 -1457 3 -1458 2 0
-2874z"/>
<path d="M80213 28193 c-7 -2 -13 -12 -13 -21 0 -24 84 -174 170 -301 42 -64
87 -135 99 -159 12 -24 61 -103 109 -177 48 -73 102 -159 120 -189 17 -31 47
-81 65 -112 17 -30 71 -116 119 -189 48 -74 97 -153 108 -175 11 -22 60 -101
108 -175 48 -73 102 -160 121 -192 19 -32 48 -82 65 -111 17 -30 70 -114 118
-187 48 -74 97 -153 109 -177 12 -24 57 -95 99 -158 42 -63 87 -135 100 -160
12 -25 56 -94 98 -155 76 -112 122 -196 122 -227 0 -10 -13 -32 -28 -50 -48
-55 -1851 -2767 -1858 -2794 -4 -14 -3 -28 1 -32 3 -4 183 -8 399 -10 l392 -3
35 23 c37 25 131 157 180 252 17 32 48 84 69 115 21 31 48 76 60 101 13 25 56
93 96 152 40 59 85 130 99 158 15 29 61 104 104 168 43 65 89 137 101 162 13
25 40 70 60 100 20 30 47 75 60 100 13 25 56 93 96 152 40 59 85 131 100 160
15 29 60 101 100 160 40 59 85 131 100 160 15 29 43 78 64 108 20 30 67 115
105 188 37 72 76 142 86 153 10 12 16 26 13 30 -9 14 3 10 20 -7 9 -8 16 -29
16 -45 0 -36 13 -62 88 -178 31 -49 69 -111 84 -137 27 -47 42 -73 158 -264
48 -79 69 -114 156 -260 18 -30 56 -93 84 -140 28 -47 67 -111 86 -142 19 -32
49 -84 68 -115 19 -32 58 -96 86 -143 28 -47 66 -110 84 -140 87 -146 108
-181 156 -260 116 -191 131 -217 158 -264 15 -26 48 -82 75 -122 26 -41 61
-102 78 -135 46 -92 29 -89 504 -89 223 0 405 3 405 6 0 23 -96 189 -187 326
-61 90 -125 190 -143 223 -18 33 -63 105 -100 160 -37 55 -82 127 -100 160
-19 33 -82 132 -140 220 -59 88 -122 187 -140 220 -19 33 -82 132 -140 220
-59 88 -122 187 -140 220 -18 33 -63 105 -100 160 -37 55 -82 127 -100 160
-18 33 -81 132 -140 220 -58 88 -121 187 -139 220 -18 33 -68 112 -111 175
-42 63 -85 130 -94 147 -24 47 -23 128 1 161 61 83 135 196 158 242 15 29 78
129 141 222 63 93 126 192 140 220 15 29 78 128 141 221 63 94 125 191 138
218 14 26 78 128 143 226 66 98 129 197 141 221 12 24 75 123 140 220 65 97
128 197 141 221 12 24 57 96 100 160 43 64 88 136 100 160 24 49 163 259 224
339 67 90 84 87 -383 90 l-402 2 -14 -34 c-8 -18 -25 -47 -38 -62 -14 -16 -39
-58 -57 -94 -18 -36 -47 -85 -65 -110 -18 -25 -45 -70 -60 -100 -15 -30 -42
-75 -60 -100 -18 -25 -45 -70 -60 -100 -15 -30 -42 -75 -60 -100 -18 -25 -44
-69 -59 -97 -14 -29 -59 -101 -100 -160 -40 -60 -86 -133 -101 -163 -15 -30
-42 -75 -60 -100 -18 -25 -45 -70 -60 -100 -15 -30 -42 -75 -60 -100 -18 -25
-44 -69 -59 -97 -14 -29 -59 -101 -100 -160 -40 -60 -86 -133 -101 -163 -15
-30 -42 -75 -60 -100 -18 -25 -74 -128 -125 -230 -52 -102 -95 -187 -98 -190
-9 -11 -51 57 -116 185 -37 75 -83 157 -101 183 -18 26 -47 75 -65 107 -19 33
-52 89 -76 125 -23 36 -53 90 -67 122 -14 31 -50 94 -80 140 -30 45 -62 99
-72 118 -10 19 -37 64 -60 100 -24 36 -53 88 -66 115 -12 28 -48 91 -79 140
-31 50 -75 127 -98 173 -23 46 -52 97 -66 115 -13 18 -36 55 -51 82 -16 28
-49 84 -75 125 -26 41 -58 98 -71 125 -12 28 -48 91 -79 140 -31 50 -67 112
-80 138 -13 27 -44 67 -68 88 l-45 39 -391 -1 c-215 0 -397 -3 -403 -6z"/>
</g>
</svg>
